<svg width="22" height="22" viewBox="0 0 22 22" fill="none" xmlns="http://www.w3.org/2000/svg">
<path d="M9.96325 15.2448C9.91008 15.1931 9.68275 14.9975 9.49575 14.8153C8.31967 13.7473 6.39467 10.9611 5.80708 9.50284C5.71267 9.28138 5.51283 8.72146 5.5 8.42231C5.5 8.13566 5.566 7.8624 5.69983 7.60164C5.88683 7.27659 6.18108 7.01583 6.5285 6.87295C6.76958 6.78097 7.491 6.63809 7.50383 6.63809C8.29308 6.49521 9.5755 6.41663 10.9927 6.41663C12.3429 6.41663 13.5731 6.49521 14.3743 6.61219C14.3871 6.62559 15.2836 6.76847 15.5907 6.92474C16.1517 7.2114 16.5 7.77131 16.5 8.37051V8.42231C16.4862 8.81255 16.1379 9.63322 16.1251 9.63322C15.5366 11.0129 13.706 13.7348 12.4896 14.8287C12.4896 14.8287 12.177 15.1368 11.9818 15.2707C11.7013 15.4797 11.3538 15.5833 11.0064 15.5833C10.6187 15.5833 10.2575 15.4663 9.96325 15.2448Z" fill="#27AE60"/>
</svg>
