<svg width="52" height="56" viewBox="0 0 52 56" fill="none" xmlns="http://www.w3.org/2000/svg">
<ellipse cx="26.2097" cy="28" rx="25.5586" ry="28" fill="#F6F6F6"/>
<path fill-rule="evenodd" clip-rule="evenodd" d="M34.7673 17.7944C34.7673 17.7944 34.7677 17.7945 34.6168 19.3177C34.4659 20.8409 34.4658 20.8409 34.4658 20.8409L34.4174 20.8352C34.3847 20.8314 34.3359 20.8257 34.2722 20.8184C34.1448 20.8038 33.9579 20.7826 33.7212 20.7565C33.2477 20.7044 32.5757 20.6329 31.7835 20.5555C30.1962 20.4004 28.1387 20.2229 26.2322 20.1295C25.2086 20.0794 24.2685 20.056 23.4826 20.0673C23.749 20.5433 23.9514 21.0618 24.109 21.5647C24.4879 22.7743 24.7141 24.2407 24.8364 25.7801C24.8509 25.9629 24.8641 26.1477 24.8758 26.3342C25.019 26.2798 25.1621 26.228 25.3048 26.1786C27.3638 25.4663 29.4711 25.2227 31.0372 25.1512C31.8261 25.1152 32.4913 25.1223 32.9628 25.1387C33.1988 25.1469 33.3871 25.1574 33.5188 25.1662C33.5847 25.1705 33.6365 25.1744 33.6732 25.1774C33.6915 25.1789 33.7061 25.1801 33.7167 25.181L33.7297 25.1822L33.7356 25.1827C33.7356 25.1827 33.7368 25.1828 33.6178 26.7094C33.4989 28.236 33.4997 28.2361 33.4997 28.2361L33.4952 28.2357L33.4686 28.2335C33.4434 28.2315 33.4035 28.2284 33.35 28.2249C33.2429 28.2178 33.0815 28.2087 32.8742 28.2015C32.4591 28.1871 31.8632 28.1805 31.1536 28.2129C29.7228 28.2782 27.8842 28.4997 26.1471 29.1007C25.7344 29.2435 25.3347 29.4051 24.9522 29.5873C24.9287 31.6386 24.7826 33.7399 24.5541 35.6396C24.3663 37.2002 24.1192 38.6565 23.8278 39.8615C23.5525 40.9996 23.1906 42.1241 22.6851 42.8454C22.4441 43.1892 21.9506 43.7576 21.1727 43.811C20.3226 43.8694 19.7579 43.2865 19.4699 42.867C19.1716 42.4324 18.9503 41.8759 18.7713 41.286C18.5858 40.675 18.4159 39.9266 18.2591 39.0389C17.5996 35.3058 18.2085 32.3991 19.684 30.227C20.3732 29.2125 21.2203 28.4045 22.1407 27.7599C22.1235 27.1706 22.0936 26.5966 22.0498 26.0458C21.9375 24.6324 21.7392 23.44 21.4633 22.5594C21.1682 21.6175 20.8765 21.3251 20.7775 21.2669C20.4465 21.0724 20.1072 20.8394 19.8421 20.5524C19.6215 20.3137 19.1176 19.6652 19.3183 18.7524C19.5028 17.9136 20.1428 17.5632 20.3736 17.4515C20.6804 17.3031 21.021 17.2197 21.3212 17.1657C22.5054 16.9524 24.439 16.9743 26.3571 17.0683C28.3228 17.1646 30.4264 17.3465 32.032 17.5033C32.8364 17.5819 33.5189 17.6545 34.0007 17.7076C34.2417 17.7341 34.4327 17.7557 34.5638 17.7708C34.6293 17.7783 34.6799 17.7842 34.7143 17.7882L34.7673 17.7944ZM22.0771 31.8466C22.026 31.9154 21.9763 31.9853 21.9279 32.0564C21.0059 33.4137 20.466 35.4045 21.0053 38.4566C21.0446 38.6793 21.084 38.887 21.1231 39.0803L21.124 39.0766C21.3765 38.0325 21.6039 36.7111 21.7809 35.2393C21.9114 34.1547 22.0125 33.0059 22.0771 31.8466ZM20.4469 41.0045C20.4469 41.0045 20.4514 40.9977 20.4606 40.9875C20.4515 41 20.4469 41.0045 20.4469 41.0045Z" fill="#252525"/>
</svg>
