<svg width="25" height="24" viewBox="0 0 25 24" fill="none" xmlns="http://www.w3.org/2000/svg">
<path d="M2 6.66667C2 5.95942 2.27656 5.28115 2.76884 4.78105C3.26113 4.28095 3.92881 4 4.625 4H20.375C21.0712 4 21.7389 4.28095 22.2312 4.78105C22.7234 5.28115 23 5.95942 23 6.66667V13.3333H2V6.66667ZM17.0938 8C16.9197 8 16.7528 8.07024 16.6297 8.19526C16.5066 8.32029 16.4375 8.48986 16.4375 8.66667V10C16.4375 10.1768 16.5066 10.3464 16.6297 10.4714C16.7528 10.5964 16.9197 10.6667 17.0938 10.6667H19.7188C19.8928 10.6667 20.0597 10.5964 20.1828 10.4714C20.3059 10.3464 20.375 10.1768 20.375 10V8.66667C20.375 8.48986 20.3059 8.32029 20.1828 8.19526C20.0597 8.07024 19.8928 8 19.7188 8H17.0938ZM2 16V17.3333C2 18.0406 2.27656 18.7189 2.76884 19.219C3.26113 19.719 3.92881 20 4.625 20H20.375C21.0712 20 21.7389 19.719 22.2312 19.219C22.7234 18.7189 23 18.0406 23 17.3333V16H2Z" fill="#979797"/>
</svg>
