<svg width="25" height="24" viewBox="0 0 25 24" fill="none" xmlns="http://www.w3.org/2000/svg">
<path fill-rule="evenodd" clip-rule="evenodd" d="M3.5 12.0119C3.5 7.27083 7.28901 2.99841 12.518 2.99841C17.63 2.99841 21.5 7.18971 21.5 11.9849C21.5 17.5463 16.964 20.9984 12.5 20.9984C11.024 20.9984 9.38601 20.6018 8.07201 19.8267C7.61301 19.5473 7.22601 19.3399 6.731 19.5022L4.913 20.043C4.454 20.1872 4.04 19.8267 4.175 19.34L4.778 17.3209C4.877 17.0415 4.859 16.7441 4.715 16.5097C3.941 15.0856 3.5 13.5262 3.5 12.0119ZM15.479 12.0194C15.479 12.6504 15.992 13.1731 16.631 13.1731C17.27 13.1731 17.783 12.6504 17.783 12.0194C17.783 11.3794 17.27 10.8657 16.631 10.8657C15.992 10.8657 15.479 11.3794 15.479 12.0194ZM11.33 12.0105C11.33 12.6505 11.843 13.1642 12.482 13.1733C13.121 13.1733 13.634 12.6505 13.634 12.0195C13.634 11.3796 13.121 10.8658 12.482 10.8658C11.852 10.8568 11.33 11.3796 11.33 12.0105ZM8.333 13.1739C7.703 13.1739 7.181 12.6511 7.181 12.0201C7.181 11.3802 7.694 10.8664 8.333 10.8664C8.972 10.8664 9.485 11.3802 9.485 12.0201C9.485 12.6511 8.972 13.1648 8.333 13.1739Z" fill="#979797"/>
</svg>
