<svg width="25" height="24" viewBox="0 0 25 24" fill="none" xmlns="http://www.w3.org/2000/svg">
<path fill-rule="evenodd" clip-rule="evenodd" d="M3.5 12.0118C3.5 7.27071 7.28901 2.99829 12.518 2.99829C17.63 2.99829 21.5 7.18958 21.5 11.9848C21.5 17.5461 16.964 20.9983 12.5 20.9983C11.024 20.9983 9.38601 20.6017 8.07201 19.8266C7.61301 19.5471 7.22601 19.3398 6.731 19.5021L4.913 20.0429C4.454 20.1871 4.04 19.8266 4.175 19.3398L4.778 17.3208C4.877 17.0414 4.859 16.7439 4.715 16.5096C3.941 15.0854 3.5 13.5261 3.5 12.0118ZM15.479 12.0193C15.479 12.6502 15.992 13.173 16.631 13.173C17.27 13.173 17.783 12.6502 17.783 12.0193C17.783 11.3793 17.27 10.8656 16.631 10.8656C15.992 10.8656 15.479 11.3793 15.479 12.0193ZM11.33 12.0104C11.33 12.6504 11.843 13.1641 12.482 13.1731C13.121 13.1731 13.634 12.6504 13.634 12.0194C13.634 11.3794 13.121 10.8657 12.482 10.8657C11.852 10.8567 11.33 11.3794 11.33 12.0104ZM8.333 13.1737C7.703 13.1737 7.181 12.651 7.181 12.02C7.181 11.38 7.694 10.8663 8.333 10.8663C8.972 10.8663 9.485 11.38 9.485 12.02C9.485 12.651 8.972 13.1647 8.333 13.1737Z" fill="#252525"/>
</svg>
