<svg width="22" height="21" viewBox="0 0 22 21" fill="none" xmlns="http://www.w3.org/2000/svg">
<path d="M2.25 15.6853C2.25 15.1539 2.38544 14.6312 2.64353 14.1666L8.0562 4.42383C8.53599 3.56021 9.37081 2.95084 10.3396 2.75709V2.75709C10.7755 2.66989 11.2245 2.66989 11.6604 2.75709V2.75709C12.6292 2.95084 13.464 3.56021 13.9438 4.42383L19.3565 14.1666C19.6146 14.6312 19.75 15.1539 19.75 15.6853V15.6853C19.75 17.4124 18.3499 18.8125 16.6228 18.8125H5.37717C3.65008 18.8125 2.25 17.4124 2.25 15.6853V15.6853Z" stroke="#252525" stroke-width="1.75"/>
<path d="M11 7.875L11 11.375" stroke="#252525" stroke-width="1.75" stroke-linecap="square" stroke-linejoin="round"/>
<path d="M11 14L11 14.4375" stroke="#252525" stroke-width="1.75" stroke-linecap="square" stroke-linejoin="round"/>
</svg>
