<svg width="88" height="88" viewBox="0 0 88 88" fill="none" xmlns="http://www.w3.org/2000/svg">
<circle cx="44" cy="44" r="30" fill="#C7E8FD"/>
<circle cx="44" cy="44" r="21" fill="#C7E8FD" stroke="white" stroke-width="2"/>
<circle cx="44" cy="44" r="44" fill="#FFA2A2"/>
<circle cx="44" cy="44" r="30" fill="#EB5757"/>
<path fill-rule="evenodd" clip-rule="evenodd" d="M36.783 27.332H51.233C56.883 27.332 60.6663 31.2987 60.6663 37.1987V50.817C60.6663 56.7004 56.883 60.6654 51.233 60.6654H36.783C31.133 60.6654 27.333 56.7004 27.333 50.817V37.1987C27.333 31.2987 31.133 27.332 36.783 27.332ZM49.0163 48.9987C49.583 48.4337 49.583 47.517 49.0163 46.9504L46.0497 43.9837L49.0163 41.0154C49.583 40.4504 49.583 39.517 49.0163 38.9504C48.4497 38.382 47.533 38.382 46.9497 38.9504L43.9997 41.9154L41.033 38.9504C40.4497 38.382 39.533 38.382 38.9663 38.9504C38.3997 39.517 38.3997 40.4504 38.9663 41.0154L41.933 43.9837L38.9663 46.9337C38.3997 47.517 38.3997 48.4337 38.9663 48.9987C39.2497 49.282 39.633 49.4337 39.9997 49.4337C40.383 49.4337 40.7497 49.282 41.033 48.9987L43.9997 46.0504L46.9663 48.9987C47.2497 49.3004 47.6163 49.4337 47.983 49.4337C48.3663 49.4337 48.733 49.282 49.0163 48.9987Z" fill="white"/>
</svg>
