<svg width="28" height="28" viewBox="0 0 28 28" fill="none" xmlns="http://www.w3.org/2000/svg">
<g clip-path="url(#clip0_1_2017)">
<path d="M23.9905 14.1871C23.9905 13.3677 23.9224 12.7698 23.7752 12.1497H14.1992V15.848H19.8201C19.7068 16.7671 19.0948 18.1512 17.7349 19.0813L17.7159 19.2051L20.7436 21.497L20.9534 21.5174C22.8798 19.779 23.9905 17.2211 23.9905 14.1871Z" fill="#2B56F6"/>
<path d="M14.1992 23.9313C16.953 23.9313 19.2648 23.0454 20.9534 21.5174L17.7349 19.0813C16.8737 19.6682 15.7177 20.0779 14.1992 20.0779C11.5021 20.0779 9.21297 18.3395 8.39695 15.9366L8.27734 15.9466L5.12906 18.3273L5.08789 18.4391C6.76508 21.6945 10.2102 23.9313 14.1992 23.9313Z" fill="#34A853"/>
<path d="M8.39695 15.9366C8.18164 15.3166 8.05703 14.6521 8.05703 13.9656C8.05703 13.2791 8.18164 12.6147 8.38562 11.9947L8.37992 11.8626L5.19219 9.44366L5.08789 9.49214C4.39664 10.8431 4 12.3601 4 13.9656C4 15.5712 4.39664 17.0882 5.08789 18.4391L8.39695 15.9366Z" fill="#FBBC05"/>
<path d="M14.1992 7.85336C16.1144 7.85336 17.4062 8.66168 18.1429 9.33718L21.0213 6.59107C19.2535 4.9855 16.953 4 14.1992 4C10.2102 4 6.76508 6.23672 5.08789 9.49214L8.38562 11.9947C9.21297 9.59183 11.5021 7.85336 14.1992 7.85336Z" fill="#EB4335"/>
</g>
<defs>
<clipPath id="clip0_1_2017">
<rect width="20" height="20" fill="white" transform="translate(4 4)"/>
</clipPath>
</defs>
</svg>
