<svg width="44" height="44" viewBox="0 0 44 44" fill="none" xmlns="http://www.w3.org/2000/svg">
<circle cx="22" cy="22" r="15" fill="#C7E8FD"/>
<circle cx="22" cy="22" r="10.5" fill="#C7E8FD" stroke="white"/>
<path d="M10.9747 37.4739C10.0132 38.8233 10.3205 40.7172 11.788 41.4863C13.962 42.6256 16.3177 43.3964 18.7593 43.76C22.1931 44.2714 25.6993 43.9629 28.9911 42.8596C32.2829 41.7564 35.2669 39.8898 37.699 37.4123C40.1312 34.9349 41.9426 31.917 42.9849 28.6055C44.0273 25.2939 44.2712 21.7826 43.6966 18.3588C43.122 14.9349 41.7452 11.6956 39.6788 8.90578C37.6125 6.11593 34.9152 3.85473 31.8075 2.30703C29.5979 1.2066 27.2254 0.489091 24.7908 0.177732C23.1474 -0.0324533 21.8107 1.34401 21.8258 3.0008L21.9911 21.0254C21.9969 21.6588 21.802 22.2779 21.4344 22.7938L10.9747 37.4739Z" fill="#6BB1F7"/>
<path d="M15.0326 31.7701C14.0706 33.1191 14.3775 35.0247 15.8907 35.6995C17.127 36.2508 18.4365 36.6342 19.7845 36.8355C22.1257 37.1851 24.5164 36.9757 26.7611 36.2243C29.0059 35.473 31.0409 34.201 32.6999 32.5125C34.3589 30.8239 35.5947 28.7667 36.3062 26.509C37.0178 24.2514 37.185 21.8573 36.794 19.5227C36.4031 17.188 35.4651 14.979 34.0569 13.0763C32.6486 11.1736 30.8101 9.63125 28.6915 8.57526C27.4717 7.96727 26.1791 7.53046 24.8501 7.27325C23.2234 6.95844 21.8793 8.34368 21.894 10.0005L21.9914 21.0253C21.997 21.6588 21.8019 22.2778 21.434 22.7936L15.0326 31.7701Z" fill="#2B56F6"/>
</svg>
