<svg width="168" height="168" viewBox="0 0 168 168" fill="none" xmlns="http://www.w3.org/2000/svg">
<path d="M45.9312 5.24347H42.4706C41.4861 5.24347 40.6879 4.44529 40.6879 3.46069V1.78278C40.6879 0.798178 41.4861 0 42.4706 0H45.9312V5.24347Z" fill="black"/>
<path d="M45.7738 5.24347V0H49.2343C50.2189 0 51.0171 0.798178 51.0171 1.78278V5.24347H45.7738Z" fill="black"/>
<path d="M71.3611 5.24347H67.9006C66.916 5.24347 66.1179 4.44529 66.1179 3.46069V1.78278C66.1179 0.798178 66.916 0 67.9006 0H71.3611V5.24347Z" fill="black"/>
<path d="M76.447 1.47784e-07H71.2037V5.24347H76.447V1.47784e-07Z" fill="black"/>
<path d="M76.2898 5.24347V0H79.7503C80.7349 0 81.5331 0.798178 81.5331 1.78278V5.24347H76.2898Z" fill="black"/>
<path d="M85.0198 5.13777V5.24264H86.619V3.64338H86.5141C86.5141 4.47185 85.843 5.13777 85.0198 5.13777Z" fill="black"/>
<path d="M91.705 5.24347H86.4617V1.78278C86.4617 0.798178 87.2598 0 88.2444 0H91.705V5.24347Z" fill="black"/>
<path d="M96.7911 1.47784e-07H91.5478V5.24347H96.7911V1.47784e-07Z" fill="black"/>
<path d="M101.877 1.47784e-07H96.6339V5.24347H101.877V1.47784e-07Z" fill="black"/>
<path d="M106.963 1.47784e-07H101.72V5.24347H106.963V1.47784e-07Z" fill="black"/>
<path d="M112.049 1.47784e-07H106.806V5.24347H112.049V1.47784e-07Z" fill="black"/>
<path d="M117.135 1.47784e-07H111.892V5.24347H117.135V1.47784e-07Z" fill="black"/>
<path d="M116.978 5.24347V0H120.438C121.423 0 122.221 0.798178 122.221 1.78278V5.24347H116.978Z" fill="black"/>
<path d="M51.0171 5.08559V8.54628C51.0171 9.53088 50.2189 10.3291 49.2343 10.3291H47.5565C46.5719 10.3291 45.7738 9.53088 45.7738 8.54628V5.08559H51.0171Z" fill="black"/>
<path d="M61.1892 10.3291H57.7286C56.7441 10.3291 55.9459 9.53088 55.9459 8.54628V6.86837C55.9459 5.88377 56.7441 5.08559 57.7286 5.08559H61.1892V10.3291Z" fill="black"/>
<path d="M61.0318 10.3291V5.08559H64.4923C65.4769 5.08559 66.2751 5.88377 66.2751 6.86837V10.3291H61.0318Z" fill="black"/>
<path d="M81.5331 5.08559V10.3291H78.0725C77.0879 10.3291 76.2898 9.53088 76.2898 8.54628V5.08559H81.5331Z" fill="black"/>
<path d="M86.6191 5.08559H81.3758V10.3291H86.6191V5.08559Z" fill="black"/>
<path d="M91.705 5.08559H86.4617V10.3291H91.705V5.08559Z" fill="black"/>
<path d="M106.963 5.08559H101.72V10.3291H106.963V5.08559Z" fill="black"/>
<path d="M64.6759 15.3107V15.4156H66.2751V13.8163H66.1702C66.1702 14.6448 65.4991 15.3107 64.6759 15.3107Z" fill="black"/>
<path d="M71.3611 15.4164H66.1179V11.9557C66.1179 10.9711 66.916 10.1729 67.9006 10.1729H71.3611V15.4164Z" fill="black"/>
<path d="M71.2037 15.4164V10.1729H74.6643C75.6488 10.1729 76.447 10.9711 76.447 11.9557V15.4164H71.2037Z" fill="black"/>
<path d="M86.6191 10.1729H81.3758V15.4164H86.6191V10.1729Z" fill="black"/>
<path d="M91.705 10.1729H86.4617V15.4164H91.705V10.1729Z" fill="black"/>
<path d="M91.5478 15.4164V10.1729H95.0083C95.9929 10.1729 96.7911 10.9711 96.7911 11.9557V15.4164H91.5478Z" fill="black"/>
<path d="M106.963 10.1729H101.72V15.4164H106.963V10.1729Z" fill="black"/>
<path d="M106.806 15.4164V10.1729H110.266C111.251 10.1729 112.049 10.9711 112.049 11.9557V15.4164H106.806Z" fill="black"/>
<path d="M122.064 11.6726V13.922C122.064 14.7505 122.735 15.4164 123.563 15.4164H125.813C126.646 15.4164 127.312 14.7452 127.312 13.9168V11.6726C127.307 10.8389 126.636 10.1729 125.807 10.1729H123.563C122.735 10.1729 122.064 10.8441 122.064 11.6726Z" fill="black"/>
<path d="M61.1892 20.502H57.7286C56.7441 20.502 55.9459 19.7038 55.9459 18.7192V17.0413C55.9459 16.0567 56.7441 15.2585 57.7286 15.2585H61.1892V20.502Z" fill="black"/>
<path d="M66.2751 15.2585H61.0318V20.502H66.2751V15.2585Z" fill="black"/>
<path d="M71.3611 15.2585H66.1179V20.502H71.3611V15.2585Z" fill="black"/>
<path d="M71.2037 15.2585H76.447V18.7192C76.447 19.7038 75.6488 20.502 74.6643 20.502H71.2037V15.2585Z" fill="black"/>
<path d="M86.6191 15.2585V18.7192C86.6191 19.7038 85.821 20.502 84.8364 20.502H83.1586C82.174 20.502 81.3758 19.7038 81.3758 18.7192V15.2585H86.6191Z" fill="black"/>
<path d="M106.963 15.2585V18.7192C106.963 19.7038 106.165 20.502 105.18 20.502H103.502C102.518 20.502 101.72 19.7038 101.72 18.7192V15.2585H106.963Z" fill="black"/>
<path d="M111.892 16.7582V19.0076C111.892 19.8361 112.563 20.502 113.391 20.502H115.641C116.474 20.502 117.14 19.8308 117.14 19.0024V16.7582C117.135 15.9245 116.464 15.2585 115.635 15.2585H113.391C112.563 15.2585 111.892 15.9297 111.892 16.7582Z" fill="black"/>
<path d="M40.6879 25.5876V22.1269C40.6879 21.1423 41.4861 20.3441 42.4706 20.3441H44.1485C45.1331 20.3441 45.9312 21.1423 45.9312 22.1269V25.5876H40.6879Z" fill="black"/>
<path d="M50.8598 21.8438V24.0932C50.8598 24.9217 51.531 25.5876 52.3594 25.5876H54.6088C55.4425 25.5876 56.1084 24.9164 56.1084 24.088V21.8438C56.1031 21.01 55.432 20.3441 54.6036 20.3441H52.3594C51.531 20.3441 50.8598 21.0153 50.8598 21.8438Z" fill="black"/>
<path d="M66.2751 20.3441H61.0318V25.5876H66.2751V20.3441Z" fill="black"/>
<path d="M76.2898 25.5876V22.1269C76.2898 21.1423 77.0879 20.3441 78.0725 20.3441H79.7503C80.7349 20.3441 81.5331 21.1423 81.5331 22.1269V25.5876H76.2898Z" fill="black"/>
<path d="M91.5478 21.8438V24.0932C91.5478 24.9217 92.2189 25.5876 93.0474 25.5876H95.2967C96.1304 25.5876 96.7963 24.9164 96.7963 24.088V21.8438C96.7911 21.01 96.1199 20.3441 95.2915 20.3441H93.0474C92.2189 20.3441 91.5478 21.0153 91.5478 21.8438Z" fill="black"/>
<path d="M106.806 21.8438V24.0932C106.806 24.9217 107.477 25.5876 108.305 25.5876H110.555C111.388 25.5876 112.054 24.9164 112.054 24.088V21.8438C112.049 21.01 111.378 20.3441 110.549 20.3441H108.305C107.477 20.3441 106.806 21.0153 106.806 21.8438Z" fill="black"/>
<path d="M116.978 21.8438V24.0932C116.978 24.9217 117.649 25.5876 118.477 25.5876H120.727C121.56 25.5876 122.226 24.9164 122.226 24.088V21.8438C122.221 21.01 121.55 20.3441 120.721 20.3441H118.477C117.649 20.3441 116.978 21.0153 116.978 21.8438Z" fill="black"/>
<path d="M45.9312 25.4315H40.6879V30.6749H45.9312V25.4315Z" fill="black"/>
<path d="M61.1892 30.6749H57.7286C56.7441 30.6749 55.9459 29.8768 55.9459 28.8922V27.2143C55.9459 26.2297 56.7441 25.4315 57.7286 25.4315H61.1892V30.6749Z" fill="black"/>
<path d="M66.2751 25.4315H61.0318V30.6749H66.2751V25.4315Z" fill="black"/>
<path d="M66.1179 30.6749V25.4315H69.5784C70.563 25.4315 71.3611 26.2297 71.3611 27.2143V30.6749H66.1179Z" fill="black"/>
<path d="M81.5331 25.4315V28.8922C81.5331 29.8768 80.7349 30.6749 79.7503 30.6749H78.0725C77.0879 30.6749 76.2898 29.8768 76.2898 28.8922V25.4315H81.5331Z" fill="black"/>
<path d="M101.72 30.6749V27.2143C101.72 26.2297 102.518 25.4315 103.502 25.4315H105.18C106.165 25.4315 106.963 26.2297 106.963 27.2143V30.6749H101.72Z" fill="black"/>
<path d="M45.9312 30.5171V33.9778C45.9312 34.9624 45.1331 35.7605 44.1485 35.7605H42.4706C41.4861 35.7605 40.6879 34.9624 40.6879 33.9778V30.5171H45.9312Z" fill="black"/>
<path d="M50.8598 32.0167V34.2661C50.8598 35.0946 51.531 35.7605 52.3594 35.7605H54.6088C55.4425 35.7605 56.1084 35.0894 56.1084 34.2609V32.0167C56.1031 31.183 55.432 30.5171 54.6036 30.5171H52.3594C51.531 30.5171 50.8598 31.1882 50.8598 32.0167Z" fill="black"/>
<path d="M66.2751 30.5171H61.0318V35.7605H66.2751V30.5171Z" fill="black"/>
<path d="M71.2037 32.0167V34.2661C71.2037 35.0946 71.8748 35.7605 72.7033 35.7605H74.9527C75.7863 35.7605 76.4522 35.0894 76.4522 34.2609V32.0167C76.447 31.183 75.7758 30.5171 74.9474 30.5171H72.7033C71.8748 30.5171 71.2037 31.1882 71.2037 32.0167Z" fill="black"/>
<path d="M81.3758 35.7605V32.2998C81.3758 31.3152 82.174 30.5171 83.1586 30.5171H84.8364C85.821 30.5171 86.6191 31.3152 86.6191 32.2998V35.7605H81.3758Z" fill="black"/>
<path d="M91.5478 35.7605V32.2998C91.5478 31.3152 92.3459 30.5171 93.3305 30.5171H95.0083C95.9929 30.5171 96.7911 31.3152 96.7911 32.2998V35.7605H91.5478Z" fill="black"/>
<path d="M106.963 30.5171V33.9778C106.963 34.9624 106.165 35.7605 105.18 35.7605H103.502C102.518 35.7605 101.72 34.9624 101.72 33.9778V30.5171H106.963Z" fill="black"/>
<path d="M111.892 32.0167V34.2661C111.892 35.0946 112.563 35.7605 113.391 35.7605H115.641C116.474 35.7605 117.14 35.0894 117.14 34.2609V32.0167C117.135 31.183 116.464 30.5171 115.635 30.5171H113.391C112.563 30.5171 111.892 31.1882 111.892 32.0167Z" fill="black"/>
<path d="M122.064 32.0167V34.2661C122.064 35.0946 122.735 35.7605 123.563 35.7605H125.813C126.646 35.7605 127.312 35.0894 127.312 34.2609V32.0167C127.307 31.183 126.636 30.5171 125.807 30.5171H123.563C122.735 30.5171 122.064 31.1882 122.064 32.0167Z" fill="black"/>
<path d="M45.7738 40.8461V37.3854C45.7738 36.4008 46.5719 35.6027 47.5565 35.6027H49.2343C50.2189 35.6027 51.0171 36.4008 51.0171 37.3854V40.8461H45.7738Z" fill="black"/>
<path d="M61.1892 40.8461H57.7286C56.7441 40.8461 55.9459 40.048 55.9459 39.0634V37.3854C55.9459 36.4008 56.7441 35.6027 57.7286 35.6027H61.1892V40.8461Z" fill="black"/>
<path d="M61.0318 35.6027H66.2751V39.0634C66.2751 40.048 65.4769 40.8461 64.4923 40.8461H61.0318V35.6027Z" fill="black"/>
<path d="M79.9339 40.7422V40.8471H81.5331V39.2478H81.4282C81.4282 40.0763 80.7571 40.7422 79.9339 40.7422Z" fill="black"/>
<path d="M86.6191 35.6027H81.3758V40.8461H86.6191V35.6027Z" fill="black"/>
<path d="M96.7911 35.6027V39.0634C96.7911 40.048 95.9929 40.8461 95.0083 40.8461H93.3305C92.3459 40.8461 91.5478 40.048 91.5478 39.0634V35.6027H96.7911Z" fill="black"/>
<path d="M106.806 37.1023V39.3517C106.806 40.1802 107.477 40.8461 108.305 40.8461H110.555C111.388 40.8461 112.054 40.175 112.054 39.3465V37.1023C112.049 36.2686 111.378 35.6027 110.549 35.6027H108.305C107.477 35.6027 106.806 36.2738 106.806 37.1023Z" fill="black"/>
<path d="M10.3294 45.9335H5.08607V42.4728C5.08607 41.4882 5.88422 40.69 6.86879 40.69H10.3294V45.9335Z" fill="black"/>
<path d="M15.4152 40.69H10.1719V45.9335H15.4152V40.69Z" fill="black"/>
<path d="M20.5013 40.69H15.258V45.9335H20.5013V40.69Z" fill="black"/>
<path d="M25.5871 40.69H20.3439V45.9335H25.5871V40.69Z" fill="black"/>
<path d="M30.6732 40.69H25.4299V45.9335H30.6732V40.69Z" fill="black"/>
<path d="M35.7593 40.69H30.516V45.9335H35.7593V40.69Z" fill="black"/>
<path d="M35.6019 45.9335V40.69H39.0624C40.047 40.69 40.8451 41.4882 40.8451 42.4728V45.9335H35.6019Z" fill="black"/>
<path d="M51.0171 40.69V45.9335H47.5565C46.5719 45.9335 45.7738 45.1353 45.7738 44.1507V40.69H51.0171Z" fill="black"/>
<path d="M50.8598 45.9335V40.69H54.3204C55.305 40.69 56.1031 41.4882 56.1031 42.4728V45.9335H50.8598Z" fill="black"/>
<path d="M74.8478 45.8278V45.9327H76.447V44.3334H76.3422C76.3422 45.1619 75.671 45.8278 74.8478 45.8278Z" fill="black"/>
<path d="M81.5331 45.9335H76.2898V42.4728C76.2898 41.4882 77.0879 40.69 78.0725 40.69H81.5331V45.9335Z" fill="black"/>
<path d="M86.6191 40.69H81.3758V45.9335H86.6191V40.69Z" fill="black"/>
<path d="M86.4617 45.9335V40.69H89.9223C90.9068 40.69 91.705 41.4882 91.705 42.4728V45.9335H86.4617Z" fill="black"/>
<path d="M100.278 45.8278V45.9327H101.877V44.3334H101.772C101.772 45.1619 101.101 45.8278 100.278 45.8278Z" fill="black"/>
<path d="M101.72 45.9335V42.4728C101.72 41.4882 102.518 40.69 103.502 40.69H105.18C106.165 40.69 106.963 41.4882 106.963 42.4728V45.9335H101.72Z" fill="black"/>
<path d="M111.892 42.1896V44.4391C111.892 45.2676 112.563 45.9335 113.391 45.9335H115.641C116.474 45.9335 117.14 45.2623 117.14 44.4338V42.1896C117.135 41.3559 116.464 40.69 115.635 40.69H113.391C112.563 40.69 111.892 41.3612 111.892 42.1896Z" fill="black"/>
<path d="M122.064 42.1896V44.4391C122.064 45.2676 122.735 45.9335 123.563 45.9335H125.813C126.646 45.9335 127.312 45.2623 127.312 44.4338V42.1896C127.307 41.3559 126.636 40.69 125.807 40.69H123.563C122.735 40.69 122.064 41.3612 122.064 42.1896Z" fill="black"/>
<path d="M135.88 45.8278V45.9327H137.479V44.3334H137.374C137.374 45.1619 136.703 45.8278 135.88 45.8278Z" fill="black"/>
<path d="M142.565 45.9335H137.322V42.4728C137.322 41.4882 138.12 40.69 139.104 40.69H142.565V45.9335Z" fill="black"/>
<path d="M142.408 45.9335V40.69H145.868C146.853 40.69 147.651 41.4882 147.651 42.4728V45.9335H142.408Z" fill="black"/>
<path d="M162.751 45.9335V42.4728C162.751 41.4882 163.55 40.69 164.534 40.69H166.212C167.197 40.69 167.995 41.4882 167.995 42.4728V45.9335H162.751Z" fill="black"/>
<path d="M10.3294 45.7756H5.08607V51.0191H10.3294V45.7756Z" fill="black"/>
<path d="M20.5013 45.7756V51.0191H17.0407C16.0561 51.0191 15.258 50.2209 15.258 49.2363V45.7756H20.5013Z" fill="black"/>
<path d="M25.5871 45.7756H20.3439V51.0191H25.5871V45.7756Z" fill="black"/>
<path d="M25.4299 45.7756H30.6732V49.2363C30.6732 50.2209 29.8751 51.0191 28.8905 51.0191H25.4299V45.7756Z" fill="black"/>
<path d="M40.8451 45.7756V49.2363C40.8451 50.2209 40.047 51.0191 39.0624 51.0191H37.3846C36.4 51.0191 35.6019 50.2209 35.6019 49.2363V45.7756H40.8451Z" fill="black"/>
<path d="M56.1031 45.7756V51.0191H52.6426C51.658 51.0191 50.8598 50.2209 50.8598 49.2363V45.7756H56.1031Z" fill="black"/>
<path d="M55.9459 51.0191V45.7756H59.4065C60.3911 45.7756 61.1892 46.5738 61.1892 47.5584V51.0191H55.9459Z" fill="black"/>
<path d="M71.3611 51.0191H67.9006C66.916 51.0191 66.1179 50.2209 66.1179 49.2363V47.5584C66.1179 46.5738 66.916 45.7756 67.9006 45.7756H71.3611V51.0191Z" fill="black"/>
<path d="M76.447 45.7756H71.2037V51.0191H76.447V45.7756Z" fill="black"/>
<path d="M81.5331 45.7756H76.2898V51.0191H81.5331V45.7756Z" fill="black"/>
<path d="M81.3758 45.7756H86.6191V49.2363C86.6191 50.2209 85.821 51.0191 84.8364 51.0191H81.3758V45.7756Z" fill="black"/>
<path d="M96.7911 51.0191H91.5478V47.5584C91.5478 46.5738 92.3459 45.7756 93.3305 45.7756H96.7911V51.0191Z" fill="black"/>
<path d="M101.877 45.7756H96.6339V51.0191H101.877V45.7756Z" fill="black"/>
<path d="M106.963 45.7756H101.72V51.0191H106.963V45.7756Z" fill="black"/>
<path d="M106.806 51.0191V45.7756H110.266C111.251 45.7756 112.049 46.5738 112.049 47.5584V51.0191H106.806Z" fill="black"/>
<path d="M116.978 47.2752V49.5247C116.978 50.3532 117.649 51.0191 118.477 51.0191H120.727C121.56 51.0191 122.226 50.3479 122.226 49.5194V47.2752C122.221 46.4415 121.55 45.7756 120.721 45.7756H118.477C117.649 45.7756 116.978 46.4468 116.978 47.2752Z" fill="black"/>
<path d="M137.479 51.0191H134.018C133.034 51.0191 132.236 50.2209 132.236 49.2363V47.5584C132.236 46.5738 133.034 45.7756 134.018 45.7756H137.479V51.0191Z" fill="black"/>
<path d="M137.322 45.7756H142.565V49.2363C142.565 50.2209 141.767 51.0191 140.782 51.0191H137.322V45.7756Z" fill="black"/>
<path d="M152.737 51.0191H149.276C148.292 51.0191 147.494 50.2209 147.494 49.2363V47.5584C147.494 46.5738 148.292 45.7756 149.276 45.7756H152.737V51.0191Z" fill="black"/>
<path d="M152.58 51.0191V45.7756H156.04C157.025 45.7756 157.823 46.5738 157.823 47.5584V51.0191H152.58Z" fill="black"/>
<path d="M167.995 45.7756V49.2363C167.995 50.2209 167.197 51.0191 166.212 51.0191H164.534C163.55 51.0191 162.751 50.2209 162.751 49.2363V45.7756H167.995Z" fill="black"/>
<path d="M10.3294 50.8612H5.08607V56.1047H10.3294V50.8612Z" fill="black"/>
<path d="M10.1719 56.1047V50.8612H13.6325C14.6171 50.8612 15.4152 51.6594 15.4152 52.644V56.1047H10.1719Z" fill="black"/>
<path d="M18.9021 56.0007V56.1056H20.5013V54.5063H20.3965C20.3965 55.3348 19.7253 56.0007 18.9021 56.0007Z" fill="black"/>
<path d="M25.5871 50.8612H20.3439V56.1047H25.5871V50.8612Z" fill="black"/>
<path d="M30.516 52.3608V54.6103C30.516 55.4387 31.1871 56.1047 32.0156 56.1047H34.2649C35.0986 56.1047 35.7645 55.4335 35.7645 54.605V52.3608C35.7593 51.5271 35.0881 50.8612 34.2597 50.8612H32.0156C31.1871 50.8612 30.516 51.5324 30.516 52.3608Z" fill="black"/>
<path d="M61.1892 50.8612H55.9459V56.1047H61.1892V50.8612Z" fill="black"/>
<path d="M61.0318 56.1047V50.8612H64.4923C65.4769 50.8612 66.2751 51.6594 66.2751 52.644V56.1047H61.0318Z" fill="black"/>
<path d="M96.7911 50.8612V54.3219C96.7911 55.3065 95.9929 56.1047 95.0083 56.1047H93.3305C92.3459 56.1047 91.5478 55.3065 91.5478 54.3219V50.8612H96.7911Z" fill="black"/>
<path d="M111.892 52.3608V54.6103C111.892 55.4387 112.563 56.1047 113.391 56.1047H115.641C116.474 56.1047 117.14 55.4335 117.14 54.605V52.3608C117.135 51.5271 116.464 50.8612 115.635 50.8612H113.391C112.563 50.8612 111.892 51.5324 111.892 52.3608Z" fill="black"/>
<path d="M127.307 56.1047H123.846C122.862 56.1047 122.064 55.3065 122.064 54.3219V52.644C122.064 51.6594 122.862 50.8612 123.846 50.8612H127.307V56.1047Z" fill="black"/>
<path d="M127.15 56.1047V50.8612H130.61C131.595 50.8612 132.393 51.6594 132.393 52.644V56.1047H127.15Z" fill="black"/>
<path d="M142.408 56.1047V52.644C142.408 51.6594 143.206 50.8612 144.19 50.8612H145.868C146.853 50.8612 147.651 51.6594 147.651 52.644V56.1047H142.408Z" fill="black"/>
<path d="M151.138 56.0007V56.1056H152.737V54.5063H152.632C152.632 55.3348 151.961 56.0007 151.138 56.0007Z" fill="black"/>
<path d="M157.823 50.8612H152.58V56.1047H157.823V50.8612Z" fill="black"/>
<path d="M157.666 56.1047V50.8612H161.126C162.111 50.8612 162.909 51.6594 162.909 52.644V56.1047H157.666Z" fill="black"/>
<path d="M10.3294 55.9485V61.192H6.86879C5.88422 61.192 5.08607 60.3938 5.08607 59.4092V55.9485H10.3294Z" fill="black"/>
<path d="M15.4152 55.9485H10.1719V61.192H15.4152V55.9485Z" fill="black"/>
<path d="M20.5013 55.9485H15.258V61.192H20.5013V55.9485Z" fill="black"/>
<path d="M25.5871 55.9485H20.3439V61.192H25.5871V55.9485Z" fill="black"/>
<path d="M44.3321 61.0863V61.1912H45.9313V59.5919H45.8264C45.8264 60.4204 45.1553 61.0863 44.3321 61.0863Z" fill="black"/>
<path d="M45.7738 61.192V57.7313C45.7738 56.7467 46.5719 55.9485 47.5565 55.9485H49.2343C50.2189 55.9485 51.0171 56.7467 51.0171 57.7313V61.192H45.7738Z" fill="black"/>
<path d="M61.1892 55.9485V59.4092C61.1892 60.3938 60.3911 61.192 59.4065 61.192H57.7286C56.7441 61.192 55.9459 60.3938 55.9459 59.4092V55.9485H61.1892Z" fill="black"/>
<path d="M71.2037 57.4482V59.6976C71.2037 60.5261 71.8748 61.192 72.7033 61.192H74.9527C75.7863 61.192 76.4522 60.5209 76.4522 59.6924V57.4482C76.447 56.6145 75.7758 55.9485 74.9474 55.9485H72.7033C71.8748 55.9485 71.2037 56.6197 71.2037 57.4482Z" fill="black"/>
<path d="M95.1919 61.0863V61.1912H96.7911V59.5919H96.6862C96.6862 60.4204 96.0151 61.0863 95.1919 61.0863Z" fill="black"/>
<path d="M96.6339 61.192V57.7313C96.6339 56.7467 97.432 55.9485 98.4166 55.9485H100.094C101.079 55.9485 101.877 56.7467 101.877 57.7313V61.192H96.6339Z" fill="black"/>
<path d="M106.806 57.4482V59.6976C106.806 60.5261 107.477 61.192 108.305 61.192H110.555C111.388 61.192 112.054 60.5209 112.054 59.6924V57.4482C112.049 56.6145 111.378 55.9485 110.549 55.9485H108.305C107.477 55.9485 106.806 56.6197 106.806 57.4482Z" fill="black"/>
<path d="M115.536 61.0863V61.1912H117.135V59.5919H117.03C117.03 60.4204 116.359 61.0863 115.536 61.0863Z" fill="black"/>
<path d="M116.978 61.192V57.7313C116.978 56.7467 117.776 55.9485 118.76 55.9485H120.438C121.423 55.9485 122.221 56.7467 122.221 57.7313V61.192H116.978Z" fill="black"/>
<path d="M132.393 55.9485V59.4092C132.393 60.3938 131.595 61.192 130.61 61.192H128.932C127.948 61.192 127.15 60.3938 127.15 59.4092V55.9485H132.393Z" fill="black"/>
<path d="M147.651 55.9485H142.408V61.192H147.651V55.9485Z" fill="black"/>
<path d="M152.737 55.9485H147.494V61.192H152.737V55.9485Z" fill="black"/>
<path d="M157.823 55.9485H152.58V61.192H157.823V55.9485Z" fill="black"/>
<path d="M162.909 55.9485H157.666V61.192H162.909V55.9485Z" fill="black"/>
<path d="M162.751 61.192V55.9485H166.212C167.197 55.9485 167.995 56.7467 167.995 57.7313V61.192H162.751Z" fill="black"/>
<path d="M25.5871 61.0341V66.2776H22.1266C21.142 66.2776 20.3439 65.4794 20.3439 64.4948V61.0341H25.5871Z" fill="black"/>
<path d="M30.6732 61.0341H25.4299V66.2776H30.6732V61.0341Z" fill="black"/>
<path d="M35.7593 61.0341H30.516V66.2776H35.7593V61.0341Z" fill="black"/>
<path d="M40.8451 61.0341H35.6019V66.2776H40.8451V61.0341Z" fill="black"/>
<path d="M45.9312 61.0341H40.6879V66.2776H45.9312V61.0341Z" fill="black"/>
<path d="M51.0171 61.0341H45.7738V66.2776H51.0171V61.0341Z" fill="black"/>
<path d="M61.0318 62.5338V64.7832C61.0318 65.6117 61.7029 66.2776 62.5314 66.2776H64.7807C65.6144 66.2776 66.2803 65.6064 66.2803 64.778V62.5338C66.2751 61.7001 65.6039 61.0341 64.7755 61.0341H62.5314C61.7029 61.0341 61.0318 61.7053 61.0318 62.5338Z" fill="black"/>
<path d="M74.8478 66.1719V66.2768H76.447V64.6775H76.3422C76.3422 65.506 75.671 66.1719 74.8478 66.1719Z" fill="black"/>
<path d="M81.5331 66.2776H76.2898V62.8169C76.2898 61.8323 77.0879 61.0341 78.0725 61.0341H81.5331V66.2776Z" fill="black"/>
<path d="M81.3758 66.2776V61.0341H84.8364C85.821 61.0341 86.6191 61.8323 86.6191 62.8169V66.2776H81.3758Z" fill="black"/>
<path d="M96.7911 66.2776H93.3305C92.3459 66.2776 91.5478 65.4794 91.5478 64.4948V62.8169C91.5478 61.8323 92.3459 61.0341 93.3305 61.0341H96.7911V66.2776Z" fill="black"/>
<path d="M96.6339 61.0341H101.877V64.4948C101.877 65.4794 101.079 66.2776 100.094 66.2776H96.6339V61.0341Z" fill="black"/>
<path d="M117.135 66.2776H113.674C112.69 66.2776 111.892 65.4794 111.892 64.4948V62.8169C111.892 61.8323 112.69 61.0341 113.674 61.0341H117.135V66.2776Z" fill="black"/>
<path d="M122.221 61.0341H116.978V66.2776H122.221V61.0341Z" fill="black"/>
<path d="M122.064 66.2776V61.0341H125.524C126.509 61.0341 127.307 61.8323 127.307 62.8169V66.2776H122.064Z" fill="black"/>
<path d="M147.651 61.0341V66.2776H144.19C143.206 66.2776 142.408 65.4794 142.408 64.4948V61.0341H147.651Z" fill="black"/>
<path d="M152.737 61.0341H147.494V66.2776H152.737V61.0341Z" fill="black"/>
<path d="M5.08607 67.6194V69.8688C5.08607 70.6973 5.75721 71.3632 6.58565 71.3632H8.83502C9.6687 71.3632 10.3346 70.692 10.3346 69.8636V67.6194C10.3294 66.7857 9.65822 66.1197 8.82978 66.1197H6.58565C5.75721 66.1197 5.08607 66.7909 5.08607 67.6194Z" fill="black"/>
<path d="M40.8451 66.1197H35.6019V71.3632H40.8451V66.1197Z" fill="black"/>
<path d="M45.9312 66.1197H40.6879V71.3632H45.9312V66.1197Z" fill="black"/>
<path d="M51.0171 66.1197H45.7738V71.3632H51.0171V66.1197Z" fill="black"/>
<path d="M56.1031 66.1197H50.8598V71.3632H56.1031V66.1197Z" fill="black"/>
<path d="M55.9459 71.3632V66.1197H59.4065C60.3911 66.1197 61.1892 66.9179 61.1892 67.9025V71.3632H55.9459Z" fill="black"/>
<path d="M76.447 71.3632H72.9864C72.0019 71.3632 71.2037 70.565 71.2037 69.5804V67.9025C71.2037 66.9179 72.0019 66.1197 72.9864 66.1197H76.447V71.3632Z" fill="black"/>
<path d="M76.2898 66.1197H81.5331V69.5804C81.5331 70.565 80.7349 71.3632 79.7503 71.3632H76.2898V66.1197Z" fill="black"/>
<path d="M85.0198 71.2593V71.3641H86.619V69.7649H86.5141C86.5141 70.5933 85.843 71.2593 85.0198 71.2593Z" fill="black"/>
<path d="M86.4617 71.3632V67.9025C86.4617 66.9179 87.2599 66.1197 88.2444 66.1197H89.9223C90.9068 66.1197 91.705 66.9179 91.705 67.9025V71.3632H86.4617Z" fill="black"/>
<path d="M106.963 71.3632H103.502C102.518 71.3632 101.72 70.565 101.72 69.5804V67.9025C101.72 66.9179 102.518 66.1197 103.502 66.1197H106.963V71.3632Z" fill="black"/>
<path d="M106.806 71.3632V66.1197H110.266C111.251 66.1197 112.049 66.9179 112.049 67.9025V71.3632H106.806Z" fill="black"/>
<path d="M122.221 66.1197V69.5804C122.221 70.565 121.423 71.3632 120.438 71.3632H118.76C117.776 71.3632 116.978 70.565 116.978 69.5804V66.1197H122.221Z" fill="black"/>
<path d="M130.794 71.2593V71.3641H132.393V69.7649H132.288C132.288 70.5933 131.617 71.2593 130.794 71.2593Z" fill="black"/>
<path d="M132.236 71.3632V67.9025C132.236 66.9179 133.034 66.1197 134.018 66.1197H135.696C136.681 66.1197 137.479 66.9179 137.479 67.9025V71.3632H132.236Z" fill="black"/>
<path d="M152.737 66.1197H147.494V71.3632H152.737V66.1197Z" fill="black"/>
<path d="M156.224 71.2593V71.3641H157.823V69.7649H157.718C157.718 70.5933 157.047 71.2593 156.224 71.2593Z" fill="black"/>
<path d="M162.909 71.3632H157.666V67.9025C157.666 66.9179 158.464 66.1197 159.448 66.1197H162.909V71.3632Z" fill="black"/>
<path d="M162.751 71.3632V66.1197H166.212C167.197 66.1197 167.995 66.9179 167.995 67.9025V71.3632H162.751Z" fill="black"/>
<path d="M13.8161 76.3449V76.4497H15.4153V74.8505H15.3104C15.3104 75.6789 14.6393 76.3449 13.8161 76.3449Z" fill="black"/>
<path d="M15.258 76.4506V72.9899C15.258 72.0053 16.0561 71.2071 17.0407 71.2071H18.7186C19.7031 71.2071 20.5013 72.0053 20.5013 72.9899V76.4506H15.258Z" fill="black"/>
<path d="M30.6732 76.4506H27.2126C26.2281 76.4506 25.4299 75.6524 25.4299 74.6678V72.9899C25.4299 72.0053 26.2281 71.2071 27.2126 71.2071H30.6732V76.4506Z" fill="black"/>
<path d="M35.7593 71.2071H30.516V76.4506H35.7593V71.2071Z" fill="black"/>
<path d="M35.6019 71.2071H40.8451V74.6678C40.8451 75.6524 40.047 76.4506 39.0624 76.4506H35.6019V71.2071Z" fill="black"/>
<path d="M66.2751 76.4506H62.8145C61.8299 76.4506 61.0318 75.6524 61.0318 74.6678V72.9899C61.0318 72.0053 61.8299 71.2071 62.8145 71.2071H66.2751V76.4506Z" fill="black"/>
<path d="M66.1179 76.4506V71.2071H69.5784C70.563 71.2071 71.3611 72.0053 71.3611 72.9899V76.4506H66.1179Z" fill="black"/>
<path d="M86.6191 76.4506H81.3758V72.9899C81.3758 72.0053 82.174 71.2071 83.1586 71.2071H86.6191V76.4506Z" fill="black"/>
<path d="M86.4617 71.2071H91.705V74.6678C91.705 75.6524 90.9068 76.4506 89.9223 76.4506H86.4617V71.2071Z" fill="black"/>
<path d="M95.1919 76.3449V76.4497H96.7911V74.8505H96.6862C96.6862 75.6789 96.0151 76.3449 95.1919 76.3449Z" fill="black"/>
<path d="M96.6339 76.4506V72.9899C96.6339 72.0053 97.432 71.2071 98.4166 71.2071H100.094C101.079 71.2071 101.877 72.0053 101.877 72.9899V76.4506H96.6339Z" fill="black"/>
<path d="M105.364 76.3449V76.4497H106.963V74.8505H106.858C106.858 75.6789 106.187 76.3449 105.364 76.3449Z" fill="black"/>
<path d="M112.049 71.2071H106.806V76.4506H112.049V71.2071Z" fill="black"/>
<path d="M111.892 76.4506V71.2071H115.352C116.337 71.2071 117.135 72.0053 117.135 72.9899V76.4506H111.892Z" fill="black"/>
<path d="M127.307 76.4506H123.846C122.862 76.4506 122.064 75.6524 122.064 74.6678V72.9899C122.064 72.0053 122.862 71.2071 123.846 71.2071H127.307V76.4506Z" fill="black"/>
<path d="M132.393 71.2071H127.15V76.4506H132.393V71.2071Z" fill="black"/>
<path d="M137.479 71.2071H132.236V76.4506H137.479V71.2071Z" fill="black"/>
<path d="M147.651 76.4506H142.408V72.9899C142.408 72.0053 143.206 71.2071 144.19 71.2071H147.651V76.4506Z" fill="black"/>
<path d="M152.737 71.2071H147.494V76.4506H152.737V71.2071Z" fill="black"/>
<path d="M157.823 71.2071H152.58V76.4506H157.823V71.2071Z" fill="black"/>
<path d="M157.666 71.2071H162.909V74.6678C162.909 75.6524 162.111 76.4506 161.126 76.4506H157.666V71.2071Z" fill="black"/>
<path d="M10.3294 81.5361H5.08607V78.0755C5.08607 77.0909 5.88422 76.2927 6.86879 76.2927H10.3294V81.5361Z" fill="black"/>
<path d="M15.4152 76.2927H10.1719V81.5361H15.4152V76.2927Z" fill="black"/>
<path d="M20.5013 76.2927H15.258V81.5361H20.5013V76.2927Z" fill="black"/>
<path d="M20.3439 81.5361V76.2927H23.8044C24.789 76.2927 25.5871 77.0909 25.5871 78.0755V81.5361H20.3439Z" fill="black"/>
<path d="M40.6879 77.7923V80.0418C40.6879 80.8702 41.3591 81.5361 42.1875 81.5361H44.4369C45.2706 81.5361 45.9365 80.865 45.9365 80.0365V77.7923C45.9312 76.9586 45.2601 76.2927 44.4316 76.2927H42.1875C41.3591 76.2927 40.6879 76.9638 40.6879 77.7923Z" fill="black"/>
<path d="M55.9459 77.7923V80.0418C55.9459 80.8702 56.6171 81.5361 57.4455 81.5361H59.6949C60.5286 81.5361 61.1945 80.865 61.1945 80.0365V77.7923C61.1892 76.9586 60.5181 76.2927 59.6896 76.2927H57.4455C56.6171 76.2927 55.9459 76.9638 55.9459 77.7923Z" fill="black"/>
<path d="M71.3611 76.2927V81.5361H67.9006C66.916 81.5361 66.1179 80.738 66.1179 79.7534V76.2927H71.3611Z" fill="black"/>
<path d="M71.2037 81.5361V76.2927H74.6643C75.6488 76.2927 76.447 77.0909 76.447 78.0755V81.5361H71.2037Z" fill="black"/>
<path d="M86.6191 76.2927V79.7534C86.6191 80.738 85.821 81.5361 84.8364 81.5361H83.1586C82.174 81.5361 81.3758 80.738 81.3758 79.7534V76.2927H86.6191Z" fill="black"/>
<path d="M96.7911 81.5361H93.3305C92.3459 81.5361 91.5478 80.738 91.5478 79.7534V78.0755C91.5478 77.0909 92.3459 76.2927 93.3305 76.2927H96.7911V81.5361Z" fill="black"/>
<path d="M101.877 76.2927H96.6339V81.5361H101.877V76.2927Z" fill="black"/>
<path d="M106.963 76.2927H101.72V81.5361H106.963V76.2927Z" fill="black"/>
<path d="M112.049 76.2927H106.806V81.5361H112.049V76.2927Z" fill="black"/>
<path d="M111.892 76.2927H117.135V79.7534C117.135 80.738 116.337 81.5361 115.352 81.5361H111.892V76.2927Z" fill="black"/>
<path d="M132.393 76.2927H127.15V81.5361H132.393V76.2927Z" fill="black"/>
<path d="M132.236 76.2927H137.479V79.7534C137.479 80.738 136.681 81.5361 135.696 81.5361H132.236V76.2927Z" fill="black"/>
<path d="M140.966 81.4304V81.5353H142.565V79.9361H142.46C142.46 80.7645 141.789 81.4304 140.966 81.4304Z" fill="black"/>
<path d="M147.651 76.2927H142.408V81.5361H147.651V76.2927Z" fill="black"/>
<path d="M152.737 76.2927H147.494V81.5361H152.737V76.2927Z" fill="black"/>
<path d="M152.58 76.2927H157.823V79.7534C157.823 80.738 157.025 81.5361 156.04 81.5361H152.58V76.2927Z" fill="black"/>
<path d="M10.3294 81.3783V84.839C10.3294 85.8236 9.53121 86.6217 8.54664 86.6217H6.86879C5.88422 86.6217 5.08607 85.8236 5.08607 84.839V81.3783H10.3294Z" fill="black"/>
<path d="M30.6732 86.6217H27.2126C26.2281 86.6217 25.4299 85.8236 25.4299 84.839V83.161C25.4299 82.1764 26.2281 81.3783 27.2126 81.3783H30.6732V86.6217Z" fill="black"/>
<path d="M35.7593 81.3783H30.516V86.6217H35.7593V81.3783Z" fill="black"/>
<path d="M35.6019 86.6217V81.3783H39.0624C40.047 81.3783 40.8451 82.1764 40.8451 83.161V86.6217H35.6019Z" fill="black"/>
<path d="M61.0318 82.8779V85.1273C61.0318 85.9558 61.7029 86.6217 62.5314 86.6217H64.7807C65.6144 86.6217 66.2803 85.9506 66.2803 85.1221V82.8779C66.2751 82.0442 65.6039 81.3783 64.7755 81.3783H62.5314C61.7029 81.3783 61.0318 82.0494 61.0318 82.8779Z" fill="black"/>
<path d="M76.447 81.3783V86.6217H72.9864C72.0019 86.6217 71.2037 85.8236 71.2037 84.839V81.3783H76.447Z" fill="black"/>
<path d="M76.2898 86.6217V81.3783H79.7503C80.7349 81.3783 81.5331 82.1764 81.5331 83.161V86.6217H76.2898Z" fill="black"/>
<path d="M85.0198 86.5178V86.6227H86.619V85.0234H86.5141C86.5141 85.8519 85.843 86.5178 85.0198 86.5178Z" fill="black"/>
<path d="M86.4617 86.6217V83.161C86.4617 82.1764 87.2599 81.3783 88.2444 81.3783H89.9223C90.9068 81.3783 91.705 82.1764 91.705 83.161V86.6217H86.4617Z" fill="black"/>
<path d="M95.1919 86.5178V86.6227H96.7911V85.0234H96.6862C96.6862 85.8519 96.0151 86.5178 95.1919 86.5178Z" fill="black"/>
<path d="M101.877 81.3783H96.6339V86.6217H101.877V81.3783Z" fill="black"/>
<path d="M120.622 86.5178V86.6227H122.221V85.0234H122.116C122.116 85.8519 121.445 86.5178 120.622 86.5178Z" fill="black"/>
<path d="M127.307 86.6217H122.064V83.161C122.064 82.1764 122.862 81.3783 123.846 81.3783H127.307V86.6217Z" fill="black"/>
<path d="M132.393 81.3783H127.15V86.6217H132.393V81.3783Z" fill="black"/>
<path d="M135.88 86.5178V86.6227H137.479V85.0234H137.374C137.374 85.8519 136.703 86.5178 135.88 86.5178Z" fill="black"/>
<path d="M142.565 86.6217H137.322V83.161C137.322 82.1764 138.12 81.3783 139.104 81.3783H142.565V86.6217Z" fill="black"/>
<path d="M142.408 81.3783H147.651V84.839C147.651 85.8236 146.853 86.6217 145.868 86.6217H142.408V81.3783Z" fill="black"/>
<path d="M161.31 86.5178V86.6227H162.909V85.0234H162.804C162.804 85.8519 162.133 86.5178 161.31 86.5178Z" fill="black"/>
<path d="M162.751 86.6217V83.161C162.751 82.1764 163.55 81.3783 164.534 81.3783H166.212C167.197 81.3783 167.995 82.1764 167.995 83.161V86.6217H162.751Z" fill="black"/>
<path d="M20.5013 91.7091H15.258V88.2484C15.258 87.2638 16.0561 86.4656 17.0407 86.4656H20.5013V91.7091Z" fill="black"/>
<path d="M20.3439 91.7091V86.4656H23.8044C24.789 86.4656 25.5871 87.2638 25.5871 88.2484V91.7091H20.3439Z" fill="black"/>
<path d="M39.246 91.6034V91.7083H40.8452V90.109H40.7403C40.7403 90.9375 40.0692 91.6034 39.246 91.6034Z" fill="black"/>
<path d="M45.9312 91.7091H40.6879V88.2484C40.6879 87.2638 41.4861 86.4656 42.4706 86.4656H45.9312V91.7091Z" fill="black"/>
<path d="M51.0171 86.4656H45.7738V91.7091H51.0171V86.4656Z" fill="black"/>
<path d="M56.1031 86.4656H50.8598V91.7091H56.1031V86.4656Z" fill="black"/>
<path d="M55.9459 91.7091V86.4656H59.4065C60.3911 86.4656 61.1892 87.2638 61.1892 88.2484V91.7091H55.9459Z" fill="black"/>
<path d="M81.5331 86.4656V91.7091H78.0725C77.0879 91.7091 76.2898 90.9109 76.2898 89.9263V86.4656H81.5331Z" fill="black"/>
<path d="M86.6191 86.4656H81.3758V91.7091H86.6191V86.4656Z" fill="black"/>
<path d="M91.705 86.4656H86.4617V91.7091H91.705V86.4656Z" fill="black"/>
<path d="M96.7911 86.4656H91.5478V91.7091H96.7911V86.4656Z" fill="black"/>
<path d="M101.877 86.4656H96.6339V91.7091H101.877V86.4656Z" fill="black"/>
<path d="M106.963 86.4656H101.72V91.7091H106.963V86.4656Z" fill="black"/>
<path d="M106.806 91.7091V86.4656H110.266C111.251 86.4656 112.049 87.2638 112.049 88.2484V91.7091H106.806Z" fill="black"/>
<path d="M122.221 91.7091H118.76C117.776 91.7091 116.978 90.9109 116.978 89.9263V88.2484C116.978 87.2638 117.776 86.4656 118.76 86.4656H122.221V91.7091Z" fill="black"/>
<path d="M127.307 86.4656H122.064V91.7091H127.307V86.4656Z" fill="black"/>
<path d="M132.393 86.4656H127.15V91.7091H132.393V86.4656Z" fill="black"/>
<path d="M137.479 86.4656H132.236V91.7091H137.479V86.4656Z" fill="black"/>
<path d="M142.565 86.4656H137.322V91.7091H142.565V86.4656Z" fill="black"/>
<path d="M152.737 91.7091H149.276C148.292 91.7091 147.494 90.9109 147.494 89.9263V88.2484C147.494 87.2638 148.292 86.4656 149.276 86.4656H152.737V91.7091Z" fill="black"/>
<path d="M157.823 86.4656H152.58V91.7091H157.823V86.4656Z" fill="black"/>
<path d="M162.909 86.4656H157.666V91.7091H162.909V86.4656Z" fill="black"/>
<path d="M162.751 86.4656H167.995V89.9263C167.995 90.9109 167.197 91.7091 166.212 91.7091H162.751V86.4656Z" fill="black"/>
<path d="M5.24329 96.7947H1.78272C0.79815 96.7947 0 95.9965 0 95.0119V93.334C0 92.3494 0.79815 91.5512 1.78272 91.5512H5.24329V96.7947Z" fill="black"/>
<path d="M5.08607 96.7947V91.5512H8.54664C9.53121 91.5512 10.3294 92.3494 10.3294 93.334V96.7947H5.08607Z" fill="black"/>
<path d="M20.5013 91.5512V95.0119C20.5013 95.9965 19.7031 96.7947 18.7186 96.7947H17.0407C16.0561 96.7947 15.258 95.9965 15.258 95.0119V91.5512H20.5013Z" fill="black"/>
<path d="M30.6732 96.7947H25.4299V93.334C25.4299 92.3494 26.2281 91.5512 27.2126 91.5512H30.6732V96.7947Z" fill="black"/>
<path d="M35.7593 91.5512H30.516V96.7947H35.7593V91.5512Z" fill="black"/>
<path d="M40.8451 91.5512H35.6019V96.7947H40.8451V91.5512Z" fill="black"/>
<path d="M45.9312 91.5512H40.6879V96.7947H45.9312V91.5512Z" fill="black"/>
<path d="M51.0171 91.5512H45.7738V96.7947H51.0171V91.5512Z" fill="black"/>
<path d="M50.8598 91.5512H56.1031V95.0119C56.1031 95.9965 55.305 96.7947 54.3204 96.7947H50.8598V91.5512Z" fill="black"/>
<path d="M71.2037 96.7947V93.334C71.2037 92.3494 72.0019 91.5512 72.9864 91.5512H74.6643C75.6488 91.5512 76.447 92.3494 76.447 93.334V96.7947H71.2037Z" fill="black"/>
<path d="M86.6191 91.5512V96.7947H83.1586C82.174 96.7947 81.3758 95.9965 81.3758 95.0119V91.5512H86.6191Z" fill="black"/>
<path d="M86.4617 91.5512H91.705V95.0119C91.705 95.9965 90.9068 96.7947 89.9223 96.7947H86.4617V91.5512Z" fill="black"/>
<path d="M106.963 91.5512H101.72V96.7947H106.963V91.5512Z" fill="black"/>
<path d="M112.049 91.5512H106.806V96.7947H112.049V91.5512Z" fill="black"/>
<path d="M132.393 91.5512H127.15V96.7947H132.393V91.5512Z" fill="black"/>
<path d="M137.479 91.5512H132.236V96.7947H137.479V91.5512Z" fill="black"/>
<path d="M142.565 91.5512H137.322V96.7947H142.565V91.5512Z" fill="black"/>
<path d="M142.408 96.7947V91.5512H145.868C146.853 91.5512 147.651 92.3494 147.651 93.334V96.7947H142.408Z" fill="black"/>
<path d="M151.138 96.689V96.7938H152.737V95.1946H152.632C152.632 96.0231 151.961 96.689 151.138 96.689Z" fill="black"/>
<path d="M157.823 91.5512H152.58V96.7947H157.823V91.5512Z" fill="black"/>
<path d="M162.909 91.5512H157.666V96.7947H162.909V91.5512Z" fill="black"/>
<path d="M10.3294 96.6368V101.88H6.86879C5.88422 101.88 5.08607 101.082 5.08607 100.097V96.6368H10.3294Z" fill="black"/>
<path d="M10.1719 101.88V96.6368H13.6325C14.6171 96.6368 15.4152 97.435 15.4152 98.4196V101.88H10.1719Z" fill="black"/>
<path d="M23.988 101.776V101.881H25.5872V100.282H25.4823C25.4823 101.11 24.8112 101.776 23.988 101.776Z" fill="black"/>
<path d="M30.6732 96.6368H25.4299V101.88H30.6732V96.6368Z" fill="black"/>
<path d="M45.9312 96.6368V100.097C45.9312 101.082 45.1331 101.88 44.1485 101.88H42.4706C41.4861 101.88 40.6879 101.082 40.6879 100.097V96.6368H45.9312Z" fill="black"/>
<path d="M61.1892 101.88H57.7286C56.7441 101.88 55.9459 101.082 55.9459 100.097V98.4196C55.9459 97.435 56.7441 96.6368 57.7286 96.6368H61.1892V101.88Z" fill="black"/>
<path d="M61.0318 101.88V96.6368H64.4923C65.4769 96.6368 66.2751 97.435 66.2751 98.4196V101.88H61.0318Z" fill="black"/>
<path d="M76.447 96.6368H71.2037V101.88H76.447V96.6368Z" fill="black"/>
<path d="M76.2898 101.88V96.6368H79.7503C80.7349 96.6368 81.5331 97.435 81.5331 98.4196V101.88H76.2898Z" fill="black"/>
<path d="M101.877 101.88H96.6339V98.4196C96.6339 97.435 97.432 96.6368 98.4166 96.6368H101.877V101.88Z" fill="black"/>
<path d="M106.963 96.6368H101.72V101.88H106.963V96.6368Z" fill="black"/>
<path d="M112.049 96.6368H106.806V101.88H112.049V96.6368Z" fill="black"/>
<path d="M117.135 96.6368H111.892V101.88H117.135V96.6368Z" fill="black"/>
<path d="M116.978 101.88V96.6368H120.438C121.423 96.6368 122.221 97.435 122.221 98.4196V101.88H116.978Z" fill="black"/>
<path d="M132.393 96.6368H127.15V101.88H132.393V96.6368Z" fill="black"/>
<path d="M142.565 96.6368H137.322V101.88H142.565V96.6368Z" fill="black"/>
<path d="M147.651 96.6368H142.408V101.88H147.651V96.6368Z" fill="black"/>
<path d="M152.737 96.6368H147.494V101.88H152.737V96.6368Z" fill="black"/>
<path d="M157.823 96.6368H152.58V101.88H157.823V96.6368Z" fill="black"/>
<path d="M162.909 96.6368H157.666V101.88H162.909V96.6368Z" fill="black"/>
<path d="M1.47779e-07 106.968V103.507C1.47779e-07 102.522 0.79815 101.724 1.78272 101.724H3.46057C4.44514 101.724 5.24329 102.522 5.24329 103.507V106.968H1.47779e-07Z" fill="black"/>
<path d="M13.8161 106.862V106.967H15.4153V105.368H15.3104C15.3104 106.196 14.6393 106.862 13.8161 106.862Z" fill="black"/>
<path d="M20.5013 106.968H15.258V103.507C15.258 102.522 16.0561 101.724 17.0407 101.724H20.5013V106.968Z" fill="black"/>
<path d="M25.5871 101.724H20.3439V106.968H25.5871V101.724Z" fill="black"/>
<path d="M30.6732 101.724H25.4299V106.968H30.6732V101.724Z" fill="black"/>
<path d="M35.7593 101.724H30.516V106.968H35.7593V101.724Z" fill="black"/>
<path d="M35.6019 106.968V101.724H39.0624C40.047 101.724 40.8451 102.522 40.8451 103.507V106.968H35.6019Z" fill="black"/>
<path d="M51.0171 106.968H45.7738V103.507C45.7738 102.522 46.5719 101.724 47.5565 101.724H51.0171V106.968Z" fill="black"/>
<path d="M50.8598 106.968V101.724H54.3204C55.305 101.724 56.1031 102.522 56.1031 103.507V106.968H50.8598Z" fill="black"/>
<path d="M66.2751 101.724H61.0318V106.968H66.2751V101.724Z" fill="black"/>
<path d="M76.447 101.724V105.185C76.447 106.169 75.6488 106.968 74.6643 106.968H72.9864C72.0019 106.968 71.2037 106.169 71.2037 105.185V101.724H76.447Z" fill="black"/>
<path d="M79.9339 106.862V106.967H81.5331V105.368H81.4282C81.4282 106.196 80.7571 106.862 79.9339 106.862Z" fill="black"/>
<path d="M86.6191 106.968H81.3758V103.507C81.3758 102.522 82.174 101.724 83.1586 101.724H86.6191V106.968Z" fill="black"/>
<path d="M86.4617 106.968V101.724H89.9223C90.9068 101.724 91.705 102.522 91.705 103.507V106.968H86.4617Z" fill="black"/>
<path d="M101.877 101.724V105.185C101.877 106.169 101.079 106.968 100.094 106.968H98.4166C97.432 106.968 96.6339 106.169 96.6339 105.185V101.724H101.877Z" fill="black"/>
<path d="M117.135 101.724V105.185C117.135 106.169 116.337 106.968 115.352 106.968H113.674C112.69 106.968 111.892 106.169 111.892 105.185V101.724H117.135Z" fill="black"/>
<path d="M132.393 101.724V105.185C132.393 106.169 131.595 106.968 130.61 106.968H128.932C127.948 106.968 127.15 106.169 127.15 105.185V101.724H132.393Z" fill="black"/>
<path d="M135.88 106.862V106.967H137.479V105.368H137.374C137.374 106.196 136.703 106.862 135.88 106.862Z" fill="black"/>
<path d="M142.565 101.724H137.322V106.968H142.565V101.724Z" fill="black"/>
<path d="M147.651 101.724H142.408V106.968H147.651V101.724Z" fill="black"/>
<path d="M147.494 101.724H152.737V105.185C152.737 106.169 151.939 106.968 150.954 106.968H147.494V101.724Z" fill="black"/>
<path d="M162.909 101.724V106.968H159.448C158.464 106.968 157.666 106.169 157.666 105.185V101.724H162.909Z" fill="black"/>
<path d="M162.751 106.968V101.724H166.212C167.197 101.724 167.995 102.522 167.995 103.507V106.968H162.751Z" fill="black"/>
<path d="M5.24329 106.81H1.47779e-07V112.053H5.24329V106.81Z" fill="black"/>
<path d="M15.4152 112.053H10.1719V108.593C10.1719 107.608 10.9701 106.81 11.9546 106.81H15.4152V112.053Z" fill="black"/>
<path d="M20.5013 106.81H15.258V112.053H20.5013V106.81Z" fill="black"/>
<path d="M20.3439 106.81H25.5871V110.27C25.5871 111.255 24.789 112.053 23.8044 112.053H20.3439V106.81Z" fill="black"/>
<path d="M51.0171 106.81H45.7738V112.053H51.0171V106.81Z" fill="black"/>
<path d="M54.504 111.948V112.052H56.1032V110.453H55.9983C55.9983 111.282 55.3272 111.948 54.504 111.948Z" fill="black"/>
<path d="M61.1892 112.053H55.9459V108.593C55.9459 107.608 56.7441 106.81 57.7286 106.81H61.1892V112.053Z" fill="black"/>
<path d="M66.2751 106.81H61.0318V112.053H66.2751V106.81Z" fill="black"/>
<path d="M66.1179 112.053V106.81H69.5784C70.563 106.81 71.3611 107.608 71.3611 108.593V112.053H66.1179Z" fill="black"/>
<path d="M81.5331 112.053H76.2898V108.593C76.2898 107.608 77.0879 106.81 78.0725 106.81H81.5331V112.053Z" fill="black"/>
<path d="M81.3758 106.81H86.6191V110.27C86.6191 111.255 85.821 112.053 84.8364 112.053H81.3758V106.81Z" fill="black"/>
<path d="M116.978 108.309V110.559C116.978 111.387 117.649 112.053 118.477 112.053H120.727C121.56 112.053 122.226 111.382 122.226 110.554V108.309C122.221 107.476 121.55 106.81 120.721 106.81H118.477C117.649 106.81 116.978 107.481 116.978 108.309Z" fill="black"/>
<path d="M137.479 112.053H134.018C133.034 112.053 132.236 111.255 132.236 110.27V108.593C132.236 107.608 133.034 106.81 134.018 106.81H137.479V112.053Z" fill="black"/>
<path d="M142.565 106.81H137.322V112.053H142.565V106.81Z" fill="black"/>
<path d="M167.995 106.81V110.27C167.995 111.255 167.197 112.053 166.212 112.053H164.534C163.55 112.053 162.751 111.255 162.751 110.27V106.81H167.995Z" fill="black"/>
<path d="M5.24329 111.895H1.47779e-07V117.139H5.24329V111.895Z" fill="black"/>
<path d="M15.4152 111.895V115.356C15.4152 116.341 14.6171 117.139 13.6325 117.139H11.9546C10.9701 117.139 10.1719 116.341 10.1719 115.356V111.895H15.4152Z" fill="black"/>
<path d="M23.988 117.035V117.14H25.5872V115.54H25.4823C25.4823 116.369 24.8112 117.035 23.988 117.035Z" fill="black"/>
<path d="M30.6732 117.139H25.4299V113.678C25.4299 112.694 26.2281 111.895 27.2126 111.895H30.6732V117.139Z" fill="black"/>
<path d="M30.516 117.139V111.895H33.9766C34.9611 111.895 35.7593 112.694 35.7593 113.678V117.139H30.516Z" fill="black"/>
<path d="M44.3321 117.035V117.14H45.9313V115.54H45.8264C45.8264 116.369 45.1553 117.035 44.3321 117.035Z" fill="black"/>
<path d="M51.0171 111.895H45.7738V117.139H51.0171V111.895Z" fill="black"/>
<path d="M56.1031 111.895H50.8598V117.139H56.1031V111.895Z" fill="black"/>
<path d="M61.1892 111.895H55.9459V117.139H61.1892V111.895Z" fill="black"/>
<path d="M66.2751 111.895H61.0318V117.139H66.2751V111.895Z" fill="black"/>
<path d="M81.5331 111.895H76.2898V117.139H81.5331V111.895Z" fill="black"/>
<path d="M91.705 117.139H86.4617V113.678C86.4617 112.694 87.2598 111.895 88.2444 111.895H91.705V117.139Z" fill="black"/>
<path d="M91.5478 117.139V111.895H95.0083C95.9929 111.895 96.7911 112.694 96.7911 113.678V117.139H91.5478Z" fill="black"/>
<path d="M101.72 113.395V115.644C101.72 116.473 102.391 117.139 103.219 117.139H105.469C106.302 117.139 106.968 116.468 106.968 115.639V113.395C106.963 112.561 106.292 111.895 105.463 111.895H103.219C102.391 111.895 101.72 112.566 101.72 113.395Z" fill="black"/>
<path d="M111.892 113.395V115.644C111.892 116.473 112.563 117.139 113.391 117.139H115.641C116.474 117.139 117.14 116.468 117.14 115.639V113.395C117.135 112.561 116.464 111.895 115.635 111.895H113.391C112.563 111.895 111.892 112.566 111.892 113.395Z" fill="black"/>
<path d="M127.307 117.139H123.846C122.862 117.139 122.064 116.341 122.064 115.356V113.678C122.064 112.694 122.862 111.895 123.846 111.895H127.307V117.139Z" fill="black"/>
<path d="M127.15 117.139V111.895H130.61C131.595 111.895 132.393 112.694 132.393 113.678V117.139H127.15Z" fill="black"/>
<path d="M135.88 117.035V117.14H137.479V115.54H137.374C137.374 116.369 136.703 117.035 135.88 117.035Z" fill="black"/>
<path d="M142.565 111.895H137.322V117.139H142.565V111.895Z" fill="black"/>
<path d="M146.052 117.035V117.14H147.651V115.54H147.546C147.546 116.369 146.875 117.035 146.052 117.035Z" fill="black"/>
<path d="M152.737 117.139H147.494V113.678C147.494 112.694 148.292 111.895 149.276 111.895H152.737V117.139Z" fill="black"/>
<path d="M157.823 111.895H152.58V117.139H157.823V111.895Z" fill="black"/>
<path d="M157.666 117.139V111.895H161.126C162.111 111.895 162.909 112.694 162.909 113.678V117.139H157.666Z" fill="black"/>
<path d="M5.24329 116.981H1.47779e-07V122.224H5.24329V116.981Z" fill="black"/>
<path d="M18.9021 122.12V122.225H20.5013V120.626H20.3965C20.3965 121.455 19.7253 122.12 18.9021 122.12Z" fill="black"/>
<path d="M25.5871 122.224H20.3439V118.764C20.3439 117.779 21.142 116.981 22.1266 116.981H25.5871V122.224Z" fill="black"/>
<path d="M30.6732 116.981H25.4299V122.224H30.6732V116.981Z" fill="black"/>
<path d="M45.9312 122.224H40.6879V118.764C40.6879 117.779 41.4861 116.981 42.4706 116.981H45.9312V122.224Z" fill="black"/>
<path d="M45.7738 116.981H51.0171V120.442C51.0171 121.426 50.2189 122.224 49.2343 122.224H45.7738V116.981Z" fill="black"/>
<path d="M66.2751 116.981V120.442C66.2751 121.426 65.4769 122.224 64.4923 122.224H62.8145C61.8299 122.224 61.0318 121.426 61.0318 120.442V116.981H66.2751Z" fill="black"/>
<path d="M81.5331 116.981V120.442C81.5331 121.426 80.7349 122.224 79.7503 122.224H78.0725C77.0879 122.224 76.2898 121.426 76.2898 120.442V116.981H81.5331Z" fill="black"/>
<path d="M91.705 116.981V120.442C91.705 121.426 90.9068 122.224 89.9223 122.224H88.2444C87.2598 122.224 86.4617 121.426 86.4617 120.442V116.981H91.705Z" fill="black"/>
<path d="M96.6339 118.481V120.73C96.6339 121.558 97.305 122.224 98.1334 122.224H100.383C101.216 122.224 101.882 121.553 101.882 120.725V118.481C101.877 117.647 101.206 116.981 100.378 116.981H98.1334C97.305 116.981 96.6339 117.652 96.6339 118.481Z" fill="black"/>
<path d="M106.806 118.481V120.73C106.806 121.558 107.477 122.224 108.305 122.224H110.555C111.388 122.224 112.054 121.553 112.054 120.725V118.481C112.049 117.647 111.378 116.981 110.549 116.981H108.305C107.477 116.981 106.806 117.652 106.806 118.481Z" fill="black"/>
<path d="M115.536 122.12V122.225H117.135V120.626H117.03C117.03 121.455 116.359 122.12 115.536 122.12Z" fill="black"/>
<path d="M116.978 122.224V118.764C116.978 117.779 117.776 116.981 118.76 116.981H120.438C121.423 116.981 122.221 117.779 122.221 118.764V122.224H116.978Z" fill="black"/>
<path d="M125.708 122.12V122.225H127.307V120.626H127.202C127.202 121.455 126.531 122.12 125.708 122.12Z" fill="black"/>
<path d="M132.393 116.981H127.15V122.224H132.393V116.981Z" fill="black"/>
<path d="M137.479 116.981H132.236V122.224H137.479V116.981Z" fill="black"/>
<path d="M142.565 116.981H137.322V122.224H142.565V116.981Z" fill="black"/>
<path d="M147.651 116.981H142.408V122.224H147.651V116.981Z" fill="black"/>
<path d="M152.737 116.981H147.494V122.224H152.737V116.981Z" fill="black"/>
<path d="M152.58 116.981H157.823V120.442C157.823 121.426 157.025 122.224 156.04 122.224H152.58V116.981Z" fill="black"/>
<path d="M162.751 122.224V118.764C162.751 117.779 163.55 116.981 164.534 116.981H166.212C167.197 116.981 167.995 117.779 167.995 118.764V122.224H162.751Z" fill="black"/>
<path d="M5.24329 122.068V125.529C5.24329 126.514 4.44514 127.312 3.46057 127.312H1.78272C0.79815 127.312 0 126.514 0 125.529V122.068H5.24329Z" fill="black"/>
<path d="M15.4152 127.312H11.9546C10.9701 127.312 10.1719 126.514 10.1719 125.529V123.851C10.1719 122.866 10.9701 122.068 11.9546 122.068H15.4152V127.312Z" fill="black"/>
<path d="M20.5013 122.068H15.258V127.312H20.5013V122.068Z" fill="black"/>
<path d="M25.5871 122.068H20.3439V127.312H25.5871V122.068Z" fill="black"/>
<path d="M30.6732 122.068H25.4299V127.312H30.6732V122.068Z" fill="black"/>
<path d="M30.516 127.312V122.068H33.9766C34.9611 122.068 35.7593 122.866 35.7593 123.851V127.312H30.516Z" fill="black"/>
<path d="M45.9312 122.068H40.6879V127.312H45.9312V122.068Z" fill="black"/>
<path d="M50.8598 127.312V123.851C50.8598 122.866 51.658 122.068 52.6426 122.068H54.3204C55.305 122.068 56.1031 122.866 56.1031 123.851V127.312H50.8598Z" fill="black"/>
<path d="M71.2037 127.312V123.851C71.2037 122.866 72.0019 122.068 72.9864 122.068H74.6643C75.6488 122.068 76.447 122.866 76.447 123.851V127.312H71.2037Z" fill="black"/>
<path d="M79.9339 127.206V127.311H81.5331V125.712H81.4282C81.4282 126.54 80.7571 127.206 79.9339 127.206Z" fill="black"/>
<path d="M81.3758 127.312V123.851C81.3758 122.866 82.174 122.068 83.1586 122.068H84.8364C85.821 122.068 86.6191 122.866 86.6191 123.851V127.312H81.3758Z" fill="black"/>
<path d="M117.135 127.312H113.674C112.69 127.312 111.892 126.514 111.892 125.529V123.851C111.892 122.866 112.69 122.068 113.674 122.068H117.135V127.312Z" fill="black"/>
<path d="M122.221 122.068H116.978V127.312H122.221V122.068Z" fill="black"/>
<path d="M127.307 122.068H122.064V127.312H127.307V122.068Z" fill="black"/>
<path d="M132.393 122.068H127.15V127.312H132.393V122.068Z" fill="black"/>
<path d="M137.479 122.068H132.236V127.312H137.479V122.068Z" fill="black"/>
<path d="M142.565 122.068H137.322V127.312H142.565V122.068Z" fill="black"/>
<path d="M147.651 122.068H142.408V127.312H147.651V122.068Z" fill="black"/>
<path d="M147.494 122.068H152.737V125.529C152.737 126.514 151.939 127.312 150.954 127.312H147.494V122.068Z" fill="black"/>
<path d="M167.995 122.068H162.751V127.312H167.995V122.068Z" fill="black"/>
<path d="M45.9312 127.154H40.6879V132.397H45.9312V127.154Z" fill="black"/>
<path d="M56.1031 127.154V130.615C56.1031 131.599 55.305 132.397 54.3204 132.397H52.6426C51.658 132.397 50.8598 131.599 50.8598 130.615V127.154H56.1031Z" fill="black"/>
<path d="M61.0318 128.654V130.903C61.0318 131.731 61.7029 132.397 62.5314 132.397H64.7807C65.6144 132.397 66.2803 131.726 66.2803 130.898V128.654C66.2751 127.82 65.6039 127.154 64.7755 127.154H62.5314C61.7029 127.154 61.0318 127.825 61.0318 128.654Z" fill="black"/>
<path d="M76.447 127.154V132.397H72.9864C72.0019 132.397 71.2037 131.599 71.2037 130.615V127.154H76.447Z" fill="black"/>
<path d="M81.5331 127.154H76.2898V132.397H81.5331V127.154Z" fill="black"/>
<path d="M86.6191 127.154H81.3758V132.397H86.6191V127.154Z" fill="black"/>
<path d="M91.705 127.154H86.4617V132.397H91.705V127.154Z" fill="black"/>
<path d="M96.7911 127.154H91.5478V132.397H96.7911V127.154Z" fill="black"/>
<path d="M96.6339 132.397V127.154H100.094C101.079 127.154 101.877 127.952 101.877 128.937V132.397H96.6339Z" fill="black"/>
<path d="M106.806 128.654V130.903C106.806 131.731 107.477 132.397 108.305 132.397H110.555C111.388 132.397 112.054 131.726 112.054 130.898V128.654C112.049 127.82 111.378 127.154 110.549 127.154H108.305C107.477 127.154 106.806 127.825 106.806 128.654Z" fill="black"/>
<path d="M122.221 127.154H116.978V132.397H122.221V127.154Z" fill="black"/>
<path d="M127.307 127.154H122.064V132.397H127.307V127.154Z" fill="black"/>
<path d="M147.651 127.154H142.408V132.397H147.651V127.154Z" fill="black"/>
<path d="M152.58 132.397V128.937C152.58 127.952 153.378 127.154 154.362 127.154H156.04C157.025 127.154 157.823 127.952 157.823 128.937V132.397H152.58Z" fill="black"/>
<path d="M167.995 127.154V130.615C167.995 131.599 167.197 132.397 166.212 132.397H164.534C163.55 132.397 162.751 131.599 162.751 130.615V127.154H167.995Z" fill="black"/>
<path d="M45.9312 132.239H40.6879V137.483H45.9312V132.239Z" fill="black"/>
<path d="M55.9459 137.483V134.022C55.9459 133.038 56.7441 132.239 57.7286 132.239H59.4065C60.3911 132.239 61.1892 133.038 61.1892 134.022V137.483H55.9459Z" fill="black"/>
<path d="M66.1179 133.739V135.989C66.1179 136.817 66.789 137.483 67.6174 137.483H69.8668C70.7005 137.483 71.3664 136.812 71.3664 135.983V133.739C71.3611 132.905 70.69 132.239 69.8616 132.239H67.6174C66.789 132.239 66.1179 132.911 66.1179 133.739Z" fill="black"/>
<path d="M81.5331 132.239V137.483H78.0725C77.0879 137.483 76.2898 136.685 76.2898 135.7V132.239H81.5331Z" fill="black"/>
<path d="M81.3758 132.239H86.6191V135.7C86.6191 136.685 85.821 137.483 84.8364 137.483H81.3758V132.239Z" fill="black"/>
<path d="M96.7911 132.239V135.7C96.7911 136.685 95.9929 137.483 95.0083 137.483H93.3305C92.3459 137.483 91.5478 136.685 91.5478 135.7V132.239H96.7911Z" fill="black"/>
<path d="M101.72 133.739V135.989C101.72 136.817 102.391 137.483 103.219 137.483H105.469C106.302 137.483 106.968 136.812 106.968 135.983V133.739C106.963 132.905 106.292 132.239 105.463 132.239H103.219C102.391 132.239 101.72 132.911 101.72 133.739Z" fill="black"/>
<path d="M115.536 137.379V137.484H117.135V135.885H117.03C117.03 136.713 116.359 137.379 115.536 137.379Z" fill="black"/>
<path d="M122.221 132.239H116.978V137.483H122.221V132.239Z" fill="black"/>
<path d="M127.307 132.239H122.064V137.483H127.307V132.239Z" fill="black"/>
<path d="M132.236 133.739V135.989C132.236 136.817 132.907 137.483 133.735 137.483H135.985C136.818 137.483 137.484 136.812 137.484 135.983V133.739C137.479 132.905 136.808 132.239 135.979 132.239H133.735C132.907 132.239 132.236 132.911 132.236 133.739Z" fill="black"/>
<path d="M147.651 132.239H142.408V137.483H147.651V132.239Z" fill="black"/>
<path d="M151.138 137.379V137.484H152.737V135.885H152.632C152.632 136.713 151.961 137.379 151.138 137.379Z" fill="black"/>
<path d="M157.823 132.239H152.58V137.483H157.823V132.239Z" fill="black"/>
<path d="M45.9312 137.327H40.6879V142.57H45.9312V137.327Z" fill="black"/>
<path d="M45.7738 142.57V137.327H49.2343C50.2189 137.327 51.0171 138.125 51.0171 139.11V142.57H45.7738Z" fill="black"/>
<path d="M61.1892 137.327V142.57H57.7286C56.7441 142.57 55.9459 141.772 55.9459 140.787V137.327H61.1892Z" fill="black"/>
<path d="M61.0318 142.57V137.327H64.4923C65.4769 137.327 66.2751 138.125 66.2751 139.11V142.57H61.0318Z" fill="black"/>
<path d="M86.4617 138.826V141.076C86.4617 141.904 87.1328 142.57 87.9613 142.57H90.2106C91.0443 142.57 91.7102 141.899 91.7102 141.071V138.826C91.705 137.993 91.0338 137.327 90.2054 137.327H87.9613C87.1328 137.327 86.4617 137.998 86.4617 138.826Z" fill="black"/>
<path d="M112.049 142.57H108.588C107.604 142.57 106.806 141.772 106.806 140.787V139.11C106.806 138.125 107.604 137.327 108.588 137.327H112.049V142.57Z" fill="black"/>
<path d="M117.135 137.327H111.892V142.57H117.135V137.327Z" fill="black"/>
<path d="M122.221 137.327H116.978V142.57H122.221V137.327Z" fill="black"/>
<path d="M127.307 137.327H122.064V142.57H127.307V137.327Z" fill="black"/>
<path d="M140.966 142.465V142.569H142.565V140.97H142.46C142.46 141.799 141.789 142.465 140.966 142.465Z" fill="black"/>
<path d="M147.651 137.327H142.408V142.57H147.651V137.327Z" fill="black"/>
<path d="M152.737 137.327H147.494V142.57H152.737V137.327Z" fill="black"/>
<path d="M152.58 137.327H157.823V140.787C157.823 141.772 157.025 142.57 156.04 142.57H152.58V137.327Z" fill="black"/>
<path d="M45.9312 142.412H40.6879V147.656H45.9312V142.412Z" fill="black"/>
<path d="M51.0171 142.412H45.7738V147.656H51.0171V142.412Z" fill="black"/>
<path d="M66.2751 142.412H61.0318V147.656H66.2751V142.412Z" fill="black"/>
<path d="M66.1179 147.656V142.412H69.5784C70.563 142.412 71.3611 143.211 71.3611 144.195V147.656H66.1179Z" fill="black"/>
<path d="M76.2898 143.912V146.161C76.2898 146.99 76.9609 147.656 77.7894 147.656H80.0387C80.8724 147.656 81.5383 146.985 81.5383 146.156V143.912C81.5331 143.078 80.8619 142.412 80.0335 142.412H77.7894C76.9609 142.412 76.2898 143.084 76.2898 143.912Z" fill="black"/>
<path d="M91.5478 147.656V144.195C91.5478 143.211 92.3459 142.412 93.3305 142.412H95.0083C95.9929 142.412 96.7911 143.211 96.7911 144.195V147.656H91.5478Z" fill="black"/>
<path d="M100.278 147.552V147.657H101.877V146.058H101.772C101.772 146.886 101.101 147.552 100.278 147.552Z" fill="black"/>
<path d="M101.72 147.656V144.195C101.72 143.211 102.518 142.412 103.502 142.412H105.18C106.165 142.412 106.963 143.211 106.963 144.195V147.656H101.72Z" fill="black"/>
<path d="M117.135 142.412V145.873C117.135 146.858 116.337 147.656 115.352 147.656H113.674C112.69 147.656 111.892 146.858 111.892 145.873V142.412H117.135Z" fill="black"/>
<path d="M127.307 142.412V147.656H123.846C122.862 147.656 122.064 146.858 122.064 145.873V142.412H127.307Z" fill="black"/>
<path d="M132.393 142.412H127.15V147.656H132.393V142.412Z" fill="black"/>
<path d="M137.479 142.412H132.236V147.656H137.479V142.412Z" fill="black"/>
<path d="M142.565 142.412H137.322V147.656H142.565V142.412Z" fill="black"/>
<path d="M147.651 142.412H142.408V147.656H147.651V142.412Z" fill="black"/>
<path d="M152.737 142.412H147.494V147.656H152.737V142.412Z" fill="black"/>
<path d="M157.666 143.912V146.161C157.666 146.99 158.337 147.656 159.165 147.656H161.415C162.248 147.656 162.914 146.985 162.914 146.156V143.912C162.909 143.078 162.238 142.412 161.409 142.412H159.165C158.337 142.412 157.666 143.084 157.666 143.912Z" fill="black"/>
<path d="M45.9312 147.498H40.6879V152.741H45.9312V147.498Z" fill="black"/>
<path d="M45.7738 147.498H51.0171V150.959C51.0171 151.943 50.2189 152.741 49.2343 152.741H45.7738V147.498Z" fill="black"/>
<path d="M61.1892 152.741H55.9459V149.281C55.9459 148.296 56.7441 147.498 57.7286 147.498H61.1892V152.741Z" fill="black"/>
<path d="M61.0318 147.498H66.2751V150.959C66.2751 151.943 65.4769 152.741 64.4923 152.741H61.0318V147.498Z" fill="black"/>
<path d="M96.7911 147.498V152.741H93.3305C92.3459 152.741 91.5478 151.943 91.5478 150.959V147.498H96.7911Z" fill="black"/>
<path d="M101.877 147.498H96.6339V152.741H101.877V147.498Z" fill="black"/>
<path d="M106.963 147.498H101.72V152.741H106.963V147.498Z" fill="black"/>
<path d="M115.536 152.638V152.742H117.135V151.143H117.03C117.03 151.972 116.359 152.638 115.536 152.638Z" fill="black"/>
<path d="M116.978 152.741V149.281C116.978 148.296 117.776 147.498 118.76 147.498H120.438C121.423 147.498 122.221 148.296 122.221 149.281V152.741H116.978Z" fill="black"/>
<path d="M125.708 152.638V152.742H127.307V151.143H127.202C127.202 151.972 126.531 152.638 125.708 152.638Z" fill="black"/>
<path d="M132.393 147.498H127.15V152.741H132.393V147.498Z" fill="black"/>
<path d="M147.651 147.498V152.741H144.19C143.206 152.741 142.408 151.943 142.408 150.959V147.498H147.651Z" fill="black"/>
<path d="M152.737 147.498H147.494V152.741H152.737V147.498Z" fill="black"/>
<path d="M152.58 152.741V147.498H156.04C157.025 147.498 157.823 148.296 157.823 149.281V152.741H152.58Z" fill="black"/>
<path d="M162.751 148.998V151.247C162.751 152.076 163.423 152.741 164.251 152.741H166.5C167.334 152.741 168 152.07 168 151.242V148.998C167.995 148.164 167.324 147.498 166.495 147.498H164.251C163.423 147.498 162.751 148.169 162.751 148.998Z" fill="black"/>
<path d="M45.9312 152.585H40.6879V157.829H45.9312V152.585Z" fill="black"/>
<path d="M61.1892 152.585V156.046C61.1892 157.031 60.3911 157.829 59.4065 157.829H57.7286C56.7441 157.829 55.9459 157.031 55.9459 156.046V152.585H61.1892Z" fill="black"/>
<path d="M71.3611 157.829H67.9006C66.916 157.829 66.1179 157.031 66.1179 156.046V154.368C66.1179 153.384 66.916 152.585 67.9006 152.585H71.3611V157.829Z" fill="black"/>
<path d="M71.2037 157.829V152.585H74.6643C75.6488 152.585 76.447 153.384 76.447 154.368V157.829H71.2037Z" fill="black"/>
<path d="M86.4617 154.085V156.334C86.4617 157.163 87.1328 157.829 87.9613 157.829H90.2106C91.0443 157.829 91.7102 157.158 91.7102 156.329V154.085C91.705 153.251 91.0338 152.585 90.2054 152.585H87.9613C87.1328 152.585 86.4617 153.257 86.4617 154.085Z" fill="black"/>
<path d="M106.963 152.585H101.72V157.829H106.963V152.585Z" fill="black"/>
<path d="M117.135 157.829H113.674C112.69 157.829 111.892 157.031 111.892 156.046V154.368C111.892 153.384 112.69 152.585 113.674 152.585H117.135V157.829Z" fill="black"/>
<path d="M122.221 152.585H116.978V157.829H122.221V152.585Z" fill="black"/>
<path d="M127.307 152.585H122.064V157.829H127.307V152.585Z" fill="black"/>
<path d="M132.393 152.585H127.15V157.829H132.393V152.585Z" fill="black"/>
<path d="M137.479 152.585H132.236V157.829H137.479V152.585Z" fill="black"/>
<path d="M137.322 157.829V152.585H140.782C141.767 152.585 142.565 153.384 142.565 154.368V157.829H137.322Z" fill="black"/>
<path d="M157.823 152.585H152.58V157.829H157.823V152.585Z" fill="black"/>
<path d="M45.9312 157.671V161.132C45.9312 162.116 45.1331 162.914 44.1485 162.914H42.4706C41.4861 162.914 40.6879 162.116 40.6879 161.132V157.671H45.9312Z" fill="black"/>
<path d="M49.4179 162.81V162.915H51.0171V161.316H50.9123C50.9123 162.145 50.2411 162.81 49.4179 162.81Z" fill="black"/>
<path d="M50.8598 162.914V159.454C50.8598 158.469 51.658 157.671 52.6426 157.671H54.3204C55.305 157.671 56.1031 158.469 56.1031 159.454V162.914H50.8598Z" fill="black"/>
<path d="M61.0318 159.171V161.42C61.0318 162.248 61.7029 162.914 62.5314 162.914H64.7807C65.6144 162.914 66.2803 162.243 66.2803 161.415V159.171C66.2751 158.337 65.6039 157.671 64.7755 157.671H62.5314C61.7029 157.671 61.0318 158.342 61.0318 159.171Z" fill="black"/>
<path d="M76.447 157.671V162.914H72.9864C72.0019 162.914 71.2037 162.116 71.2037 161.132V157.671H76.447Z" fill="black"/>
<path d="M76.2898 162.914V157.671H79.7503C80.7349 157.671 81.5331 158.469 81.5331 159.454V162.914H76.2898Z" fill="black"/>
<path d="M91.5478 162.914V159.454C91.5478 158.469 92.3459 157.671 93.3305 157.671H95.0083C95.9929 157.671 96.7911 158.469 96.7911 159.454V162.914H91.5478Z" fill="black"/>
<path d="M106.963 157.671V162.914H103.502C102.518 162.914 101.72 162.116 101.72 161.132V157.671H106.963Z" fill="black"/>
<path d="M106.806 162.914V157.671H110.266C111.251 157.671 112.049 158.469 112.049 159.454V162.914H106.806Z" fill="black"/>
<path d="M137.479 157.671V161.132C137.479 162.116 136.681 162.914 135.696 162.914H134.018C133.034 162.914 132.236 162.116 132.236 161.132V157.671H137.479Z" fill="black"/>
<path d="M147.651 162.914H144.19C143.206 162.914 142.408 162.116 142.408 161.132V159.454C142.408 158.469 143.206 157.671 144.19 157.671H147.651V162.914Z" fill="black"/>
<path d="M152.737 157.671H147.494V162.914H152.737V157.671Z" fill="black"/>
<path d="M152.58 157.671H157.823V161.132C157.823 162.116 157.025 162.914 156.04 162.914H152.58V157.671Z" fill="black"/>
<path d="M51.0171 168H47.5565C46.5719 168 45.7738 167.202 45.7738 166.217V164.539C45.7738 163.555 46.5719 162.757 47.5565 162.757H51.0171V168Z" fill="black"/>
<path d="M50.8598 162.757H56.1031V166.217C56.1031 167.202 55.305 168 54.3204 168H50.8598V162.757Z" fill="black"/>
<path d="M81.3758 164.256V166.506C81.3758 167.334 82.047 168 82.8754 168H85.1248C85.9585 168 86.6244 167.329 86.6244 166.5V164.256C86.6191 163.422 85.948 162.757 85.1196 162.757H82.8754C82.047 162.757 81.3758 163.428 81.3758 164.256Z" fill="black"/>
<path d="M96.7911 162.757V166.217C96.7911 167.202 95.9929 168 95.0083 168H93.3305C92.3459 168 91.5478 167.202 91.5478 166.217V162.757H96.7911Z" fill="black"/>
<path d="M117.135 168H113.674C112.69 168 111.892 167.202 111.892 166.217V164.539C111.892 163.555 112.69 162.757 113.674 162.757H117.135V168Z" fill="black"/>
<path d="M122.221 162.757H116.978V168H122.221V162.757Z" fill="black"/>
<path d="M127.307 162.757H122.064V168H127.307V162.757Z" fill="black"/>
<path d="M127.15 168V162.757H130.61C131.595 162.757 132.393 163.555 132.393 164.539V168H127.15Z" fill="black"/>
<path d="M137.322 164.256V166.506C137.322 167.334 137.993 168 138.821 168H141.07C141.904 168 142.57 167.329 142.57 166.5V164.256C142.565 163.422 141.894 162.757 141.065 162.757H138.821C137.993 162.757 137.322 163.428 137.322 164.256Z" fill="black"/>
<path d="M157.666 164.256V166.506C157.666 167.334 158.337 168 159.165 168H161.415C162.248 168 162.914 167.329 162.914 166.5V164.256C162.909 163.422 162.238 162.757 161.409 162.757H159.165C158.337 162.757 157.666 163.428 157.666 164.256Z" fill="black"/>
<path fill-rule="evenodd" clip-rule="evenodd" d="M31.4598 23.9799V12.7237C31.4598 7.72743 30.7802 6.50834 30.4878 6.21537C30.1949 5.92305 28.9758 5.24338 23.9791 5.24338H12.7239C7.72715 5.24338 6.50811 5.92305 6.2158 6.21537C5.9235 6.50834 5.24319 7.72743 5.24319 12.7237V23.9799C5.24319 28.9769 5.9235 30.1959 6.2158 30.4889C6.50811 30.7806 7.72715 31.4609 12.7239 31.4609H23.9791C28.9758 31.4609 30.1949 30.7806 30.4878 30.4889C30.7802 30.1959 31.4598 28.9769 31.4598 23.9799ZM23.9791 1.47784e-07C34.2564 1.47784e-07 36.703 2.44669 36.703 12.7237C36.703 23.0014 36.703 13.7029 36.703 23.9799C36.703 34.2576 34.2564 36.7043 23.9791 36.7043C13.7024 36.7043 23.0006 36.7043 12.7239 36.7043C2.4466 36.7043 1.47779e-07 34.2576 1.47779e-07 23.9799C1.47779e-07 13.7029 1.47779e-07 18.4632 1.47779e-07 12.7237C1.47779e-07 2.44669 2.4466 1.47784e-07 12.7239 1.47784e-07C23.0006 1.47784e-07 13.7024 1.47784e-07 23.9791 1.47784e-07ZM20.7632 10.4869C25.168 10.4869 26.2164 11.5361 26.2164 15.9397C26.2164 20.3446 26.2164 16.3597 26.2164 20.764C26.2164 25.1682 25.168 26.2173 20.7632 26.2173C16.3591 26.2173 20.3439 26.2173 15.9398 26.2173C11.5357 26.2173 10.4866 25.1682 10.4866 20.764C10.4866 16.3597 10.4866 18.3997 10.4866 15.9397C10.4866 11.5361 11.5357 10.4869 15.9398 10.4869C20.3439 10.4869 16.3591 10.4869 20.7632 10.4869Z" fill="black"/>
<path fill-rule="evenodd" clip-rule="evenodd" d="M162.332 23.9799V12.7237C162.332 7.72743 161.652 6.50834 161.36 6.21537C161.067 5.92305 159.848 5.24338 154.851 5.24338H143.596C138.6 5.24338 137.38 5.92305 137.088 6.21537C136.796 6.50834 136.116 7.72743 136.116 12.7237V23.9799C136.116 28.9769 136.796 30.1959 137.088 30.4889C137.38 30.7806 138.6 31.4609 143.596 31.4609H154.851C159.848 31.4609 161.067 30.7806 161.36 30.4889C161.652 30.1959 162.332 28.9769 162.332 23.9799ZM154.851 1.47784e-07C165.129 1.47784e-07 167.575 2.44669 167.575 12.7237C167.575 23.0014 167.575 13.7029 167.575 23.9799C167.575 34.2576 165.129 36.7043 154.851 36.7043C144.575 36.7043 153.873 36.7043 143.596 36.7043C133.319 36.7043 130.872 34.2576 130.872 23.9799C130.872 13.7029 130.872 18.4632 130.872 12.7237C130.872 2.44669 133.319 1.47784e-07 143.596 1.47784e-07C153.873 1.47784e-07 144.575 1.47784e-07 154.851 1.47784e-07ZM151.636 10.4869C156.04 10.4869 157.089 11.5361 157.089 15.9397C157.089 20.3446 157.089 16.3597 157.089 20.764C157.089 25.1682 156.04 26.2173 151.636 26.2173C147.231 26.2173 151.216 26.2173 146.812 26.2173C142.408 26.2173 141.359 25.1682 141.359 20.764C141.359 16.3597 141.359 18.3997 141.359 15.9397C141.359 11.5361 142.408 10.4869 146.812 10.4869C151.216 10.4869 147.231 10.4869 151.636 10.4869Z" fill="black"/>
<path fill-rule="evenodd" clip-rule="evenodd" d="M31.4598 154.856V143.6C31.4598 138.604 30.7802 137.385 30.4878 137.092C30.1949 136.8 28.9758 136.12 23.9791 136.12H12.7239C7.72715 136.12 6.50811 136.8 6.2158 137.092C5.9235 137.385 5.24319 138.604 5.24319 143.6V154.856C5.24319 159.853 5.9235 161.072 6.2158 161.365C6.50811 161.657 7.72715 162.337 12.7239 162.337H23.9791C28.9758 162.337 30.1949 161.657 30.4878 161.365C30.7802 161.072 31.4598 159.853 31.4598 154.856ZM23.9791 130.876C34.2564 130.876 36.703 133.323 36.703 143.6C36.703 153.878 36.703 144.579 36.703 154.856C36.703 165.134 34.2564 167.581 23.9791 167.581C13.7024 167.581 23.0006 167.581 12.7239 167.581C2.4466 167.581 1.47779e-07 165.134 1.47779e-07 154.856C1.47779e-07 144.579 1.47779e-07 149.34 1.47779e-07 143.6C1.47779e-07 133.323 2.4466 130.876 12.7239 130.876C23.0006 130.876 13.7024 130.876 23.9791 130.876ZM20.7632 141.363C25.168 141.363 26.2164 142.413 26.2164 146.816C26.2164 151.221 26.2164 147.236 26.2164 151.64C26.2164 156.045 25.168 157.094 20.7632 157.094C16.3591 157.094 20.3439 157.094 15.9398 157.094C11.5357 157.094 10.4866 156.045 10.4866 151.64C10.4866 147.236 10.4866 149.276 10.4866 146.816C10.4866 142.413 11.5357 141.363 15.9398 141.363C20.3439 141.363 16.3591 141.363 20.7632 141.363Z" fill="black"/>
</svg>
