<svg width="88" height="88" viewBox="0 0 88 88" fill="none" xmlns="http://www.w3.org/2000/svg">
<circle cx="44" cy="44" r="30" fill="#C7E8FD"/>
<circle cx="44" cy="44" r="21" fill="#C7E8FD" stroke="white" stroke-width="2"/>
<circle cx="44" cy="44" r="44" fill="#6FCF97"/>
<circle cx="44" cy="44" r="30" fill="#27AE60"/>
<path fill-rule="evenodd" clip-rule="evenodd" d="M36.7835 27.3332H51.2335C56.8835 27.3332 60.6668 31.2999 60.6668 37.1999V50.8182C60.6668 56.6999 56.8835 60.6665 51.2335 60.6665H36.7835C31.1335 60.6665 27.3335 56.6999 27.3335 50.8182V37.1999C27.3335 31.2999 31.1335 27.3332 36.7835 27.3332ZM43.0501 48.9832L50.9667 41.0665C51.5334 40.4998 51.5334 39.5832 50.9667 38.9998C50.4001 38.4332 49.4667 38.4332 48.9001 38.9998L42.0167 45.8832L39.1001 42.9665C38.5334 42.3998 37.6001 42.3998 37.0334 42.9665C36.4667 43.5332 36.4667 44.4498 37.0334 45.0332L41.0001 48.9832C41.2834 49.2665 41.6501 49.3998 42.0167 49.3998C42.4001 49.3998 42.7667 49.2665 43.0501 48.9832Z" fill="white"/>
</svg>
